<mxfile host="65bd71144e">
    <diagram id="HIP3nbAZw_EuaXWnEj3U" name="Page-1">
        <mxGraphModel dx="1086" dy="708" grid="1" gridSize="10" guides="1" tooltips="1" connect="1" arrows="1" fold="1" page="1" pageScale="1" pageWidth="850" pageHeight="1100" math="0" shadow="0">
            <root>
                <mxCell id="0"/>
                <mxCell id="1" parent="0"/>
                <mxCell id="7" value="http://ics2o.mths.ca" style="swimlane;whiteSpace=wrap;html=1;" parent="1" vertex="1">
                    <mxGeometry x="100" y="30" width="760" height="480" as="geometry"/>
                </mxCell>
                <mxCell id="8" value="&lt;font style=&quot;font-size: 38px;&quot;&gt;Ages for Movies&amp;nbsp;&lt;/font&gt;" style="text;html=1;align=center;verticalAlign=middle;resizable=0;points=[];autosize=1;strokeColor=#006EAF;fillColor=#1ba1e2;fontColor=#ffffff;" vertex="1" parent="7">
                    <mxGeometry x="210" y="25" width="310" height="60" as="geometry"/>
                </mxCell>
                <mxCell id="11" value="" style="rounded=1;whiteSpace=wrap;html=1;fontSize=38;" vertex="1" parent="7">
                    <mxGeometry x="50" y="180" width="120" height="20" as="geometry"/>
                </mxCell>
                <mxCell id="12" value="&lt;span style=&quot;font-size: 12px;&quot;&gt;Age:&lt;/span&gt;" style="text;html=1;align=center;verticalAlign=middle;resizable=0;points=[];autosize=1;strokeColor=none;fillColor=none;fontSize=38;" vertex="1" parent="7">
                    <mxGeometry y="150" width="50" height="60" as="geometry"/>
                </mxCell>
                <mxCell id="13" value="Please Enter The following:" style="text;html=1;align=center;verticalAlign=middle;resizable=0;points=[];autosize=1;strokeColor=none;fillColor=none;fontSize=12;" vertex="1" parent="7">
                    <mxGeometry x="10" y="110" width="170" height="30" as="geometry"/>
                </mxCell>
                <mxCell id="15" value="Submit" style="labelPosition=center;verticalLabelPosition=middle;align=center;html=1;shape=mxgraph.basic.shaded_button;dx=10;fillColor=#6a00ff;strokeColor=#3700CC;whiteSpace=wrap;fontSize=12;fontColor=#ffffff;" vertex="1" parent="7">
                    <mxGeometry x="50" y="240" width="120" height="40" as="geometry"/>
                </mxCell>
                <mxCell id="16" value="Movies you can watch based on your age:&amp;nbsp;" style="text;html=1;align=center;verticalAlign=middle;resizable=0;points=[];autosize=1;strokeColor=none;fillColor=none;fontSize=12;" vertex="1" parent="7">
                    <mxGeometry x="10" y="310" width="250" height="30" as="geometry"/>
                </mxCell>
                <mxCell id="17" value="" style="shape=image;verticalLabelPosition=bottom;labelBackgroundColor=default;verticalAlign=top;aspect=fixed;imageAspect=0;image=data:image/jpeg,/9j/4AAQSkZJRgABAQEAYABgAAD/2wBDAAgGBgcGBQgHBwcJCQgKDBQNDAsLDBkSEw8UHRofHh0aHBwgJC4nICIsIxwcKDcpLDAxNDQ0Hyc5PTgyPC4zNDL/2wBDAQkJCQwLDBgNDRgyIRwhMjIyMjIyMjIyMjIyMjIyMjIyMjIyMjIyMjIyMjIyMjIyMjIyMjIyMjIyMjIyMjIyMjL/wAARCAE/AeADASIAAhEBAxEB/8QAHwAAAQUBAQEBAQEAAAAAAAAAAAECAwQFBgcICQoL/8QAtRAAAgEDAwIEAwUFBAQAAAF9AQIDAAQRBRIhMUEGE1FhByJxFDKBkaEII0KxwRVS0fAkM2JyggkKFhcYGRolJicoKSo0NTY3ODk6Q0RFRkdISUpTVFVWV1hZWmNkZWZnaGlqc3R1dnd4eXqDhIWGh4iJipKTlJWWl5iZmqKjpKWmp6ipqrKztLW2t7i5usLDxMXGx8jJytLT1NXW19jZ2uHi4+Tl5ufo6erx8vP09fb3+Pn6/8QAHwEAAwEBAQEBAQEBAQAAAAAAAAECAwQFBgcICQoL/8QAtREAAgECBAQDBAcFBAQAAQJ3AAECAxEEBSExBhJBUQdhcRMiMoEIFEKRobHBCSMzUvAVYnLRChYkNOEl8RcYGRomJygpKjU2Nzg5OkNERUZHSElKU1RVVldYWVpjZGVmZ2hpanN0dXZ3eHl6goOEhYaHiImKkpOUlZaXmJmaoqOkpaanqKmqsrO0tba3uLm6wsPExcbHyMnK0tPU1dbX2Nna4uPk5ebn6Onq8vP09fb3+Pn6/9oADAMBAAIRAxEAPwCmbvXFWMyWkW6RlAAUnGQM7ueO/PbHelEmvjc3k25LKPlJGAe+OevTjp79qhHihcc6bcA+0sZ/rVO68S6hIpW0s44M/wAckiuw+g6fzr3HOCV+Z/18j5uNOo3bkSNC91i40q2la8WE3D/8e0Sd+Tknn7o4OffFcLdMz6fqLuxZ2gZmY9yWUk1alhu55WmmzJK5yzvICT+tUtSZbLTLrznQSSx+XHGGBYkkHOB0AA61xVakp77I9GhRjTVlu7HFUUV3fws8EP428Vxxzo39mWmJrt+xGeE+rH9M1wHpnqnwS8GroeiHxLqK7L3UU2Wit1jg67vq3X6AeteihYhO2WyMjktnt0zWn9km3qPJVY0+VFXACrjAA9KgXTpxKxESheMYI9K+ZzGFfEVE1F2T00f3/M7KLhBPUxPG93f/ANp+HNP0/VZ9PW8nlWeS3CFiFjLAfMCOoqbwzpNroV3e39zqt5e3d0iCW5vZw2FUnAAAAUDcfzqU+DtNj1QarDpNuupb97XAPzkkYJ69xxWomny7GV4lOVxzjFdNSvi/bRcItRS2tpcmKp8lm9TM07S7LwpYi5n1kxafA9xN88ipERK5f5vUrnAxXN+ErgavLrOv7WS31S/eS1DjaWhRFjV8ds7Sa1z8PNBmu/tE3h+yeQPuG5QVBzn7ucfpW5Jpkm9fKgRUC42jAAHGBis8bOrXw/s6dNq7Td0+99ApKMJ3cjzr4weDl8VeGP7XsUD6ppSEsF5MsHUj6j7w/H1r5lzX3Ggktnx5Z3A5IA4IPavmP4weBf8AhEfExu7KIrpWoEywbRxE/Vo/w6j2PtXqYCtKVPknujKpFJ3WzPN62vCviC48LeJ7DWbYFmtpQzID99Dwy/iCRWLRXaZH054tLX2iwaxorQTaLdx+ashGGi3EblHPXI5B6YxVPTVvhM3lPa5Ec3VTkjI9+56+mK8v8AfEabwr5ul6nB9v8P3R/f2zHJQn+NM9/Ud8djzXselaTYa7btqPhnxBJeWmxj5IkxLETyAw4PHocZ964a2HfPzRPeweYw9j7Kpo117nM24uzdXO82qvubcFyVC+UMbTnpjH86uayNQ8+wEptdpMWXQHcOGxxn7ud3PU0waPqVrd3K3P24OXZvMaIqZP3fHtnPHHpirupaJqc01isMl9coGj3IIycHBy27seOnQZrlUXZqx7MqsOaL5lawyzF+NPuDGbIr5MW5XBAPoCc8Acc9TUnheFba2uNd1l44tKsQ8lw5HLSLISEHPPzfrgd6utptv4Y037f4n1yTT4TGmITIPNkI5ICjOSemBnFeO/ED4iy+K9mmadB9h0G1b9zbD70h/vyep9u2e55rqo4dtqUuh5GNzGMYyp0mm31XQ5vxX4hn8VeJ7/AFm5BVrmTKJnOxBwq/gABWJRRXcfPjueua94+DHj2O2H9l30oVTgEsehHCt9McH6A14P2HFTWl1NZXKXEDlJUOVIqWr7GVam5pOOjWx95Bw/Q5+lYvimSaLRHaBpg5kjUeQ+xyC4BAPavBfCHxrutKgjtb7DRKMBXBKj/dI5X6ciu7n+MHhfVbFra8iPlsQSI7kA5ByMHg9aTlpZmE694uMk0/R2+9GjoWq38via2EkupOXRPMidMqIyGwx9slTn3NelZ7V4/bfEXwRbeQY4JVMMvmo/2lS27GOTuyRgAYPHArZHxo8M/wDTT/v5H/8AFUotJakYepGnFqTv9/8AkXPGWo31tqCqkjW8EUBZHUgmQsQrZyRtwOM+5xWh4Jvp77TZxLL5iRS7EGB8gxnAIY5AyMZOa5HUPib4N1KUS3MUjsqbB+/QcZz/AHqLP4s+E9KjlFlARvbewa4Xk9PU0r+9e5EZpVnO+nz/AMj1gkd68n+Lnjm20vS5NMt5FeUn97g9SOQn58n0xjvXL+J/jsZ7eSDTFEeRjMRJY/8AAyBj8Bn3rxTVdWutXujcXMhZv4VHRR7VTvLTodDcq/upNR6t6X8kilI7SyNI5yzEsSe5NMooqzqPVvhB4gtSb/wbqsmyy1bBt5Cf9VcDp+eB+Kj1r2G11UtaLousLImqWcu2QRkAuuxsSpkcgjr7mvkxXKFWUkEHIIPNe0+FviPpfiaytdK8YXDWWp2w22etocH6SH+ZPB74PJyqQb1W514atCPuVPh3v2f9bns+jGAyjYJkOyMnJB7DA6dOnNZcDWu5/wB3OGGCQXG377YHTp1P6VHY3msaMFlu9JTVLQgGO+0oBtw/vFM5z9OKzovFFhGz+dZSRSerWcgbO4nONvpxWDkkknodsKUpSk4LmWmzOj1w2+bbzFnb905BBAOdycHjpnHIpJdR0/StKvrm5eVIF3r8x5kYgjHA+8TkACsy51m61l4U0fw5c3ARGUSXcXkxqSQQ2W5I46YrlfEfifRvBsxu9au4dX8Qx5NtplocQWjereh9z83oO9UryloZtRhTSqO1ul9d+3T5lPxjrcng7wXeTXB8vxB4hTyooc5a2twMc++OPqfY18+ZrW8QeINR8TazNqmqTGW4lP8AwFV7Ko7AelZJ+ldEIKEbI4KtWVWbm+oA4YH0NdxrWk2fiXWrzWrDX9IihvpDOYby4MMsLNyyMCOcHIyCQRzXDUVRkdP/AMIYf+hk8Of+DAf4Uf8ACGH/AKGTw5/4MB/hXMUUAdP/AMIYf+hk8Of+DAf4Uf8ACGH/AKGTw5/4MB/hXMUUAdP/AMIYf+hk8Of+DAf4Uf8ACGH/AKGTw5/4MB/hXMUUAdP/AMIYf+hk8Of+DAf4Uf8ACGH/AKGTw5/4MB/hXMUUAdN4kms4tM0fR7S9jvWsI5TNcRA+WXkfdtQkAkAAc45OcVzNFFAHo/hgBvA9srDIN9cAj/gEVev+GvF+paxoEGi210kWu2zpsaUgC7hXtk/xcAMOuOR148e8G3EV94d/s2OaJb6C6klEMkioZUdUGVLEAkFOR15B9a3/AOyb4FWEaqykMrLcxgqR0IO7g1OzK3R69e3vjmzjnnNpbzRwthPITczqQvOwNknOeOMc9qa+q+O4vs/maXaFp5QqLGhYKuF++d3yjlueuRjBHNc1ovjrxVpiLFfW0GpwrwGkuo45QPdgSG/EZ966MfE07Pm0C6EmOgvLcj89/wDSncVj5BooopiCiiigAqWOeaIERyyID1CsRmoqKAJ/tlz/AM/M3/fw0fbLn/n5m/7+GoKKAJ/tlz/z8zf9/DR9suf+fmb/AL+GoKKAJ/tlz/z8zf8Afw0fbLn/AJ+Zv+/hqCigCf7bc/8APzN/38NNe4mlXbJNI65zhmJqKigAooooAKs2N/d6bdLc2N3PbTL92SGQow/EVWooA7hPix4wMMcN1qS3kaNuAuYUcg4x1wD3Pelk+LHjAQPBa6ktnEx3FbaFEOenXBP61w1FLlV72K55cvLfQtX2oXmp3TXV9dz3U7felmkLsfxNVaKKZIUUUUAFFFFABRRRQAuT60ZPrSUUALk+tGT60lFABRRRQAUUUUAFFFFAG5ovi3xB4dJ/sjWLq0UnJjjk+Q/VTx+lb7/FjxRMXe4ltJ5nA3SvbLuOBgdMDp7VwlLSaT0ZUZyi7xdjrdV+JfjHWoTDd69dCAjBigIhUj0OwDP41yRJJyTkmkopkhRRRQAUUUUAFFFFABRRRQAUUUUAFFFFABRRRQAUUUUAFFFFABRRRQAUUUUALiirmlWy32r2dpISI5p0jYjqAzAH+denyahcW8jwWjC1t42KRwwqFVFB4HTn6nk1hXxHsmkld/cXGHMeSYo59K9s0a28R+IJ2j06SV1Q4kmdtscfsWxyfYZNdJ/YNvYXM1vq3ibUPOt4fOnNrbYjiTBOS5DdlNcU80UHyuKv2u3+hapeZ830c19ITaZpDxRm38TatDNMP3Uc1uGZzuC4C7QSckdO3PQGsjX9E8T6AjTzXL3NmvW5gOQv+8vVfryPelDNVJ8vLZ+ba/QPZeZ4Nikr1r+1tQ/5+5CPQ4IP4Y5riPGNrBba2r20aQxz28U5jQYVWZedo7DOTjtmuujinUlyyVvncmULK5zlFFFdRmL3o/GitPR9CvtbuPJsoSxH3mPCr9TTjFydkKUlFXk7IzKM17No/wAB767hWW7mlG4Z6CMfrkn8hW0v7PUeOblvxmH/AMRWjpW3a+8xWIi/hTfyPn+ivoL/AIZ5i/5+j/3+/wDsKP8AhnmLtdH/AL/f/YUezX8yD2/91/cfPvFFfQB/Z5j7XR/7/f8A2FUb74ATxws1vNKWA7Or/phaPZN7SX3g8Qlun9x4bR3rpPEXgzVfDkjfaIi0KnBkVSMH/aB5WubqJQlF2aNYTjNXi7oSiiipKF70AUV7J8O/hpaLpkHifxPbGW2lI+xWB487PR5P9j0HfqewMykormlsVGMpSUY7s4Tw38PvE3ixfM0vTXa2zg3MpEcQ/wCBHr+Ga7WL4D3ax5vvFGlW74yVj3SY9fSvXv7TvZYnRbXy4Fi2pDCwVUGSPlGOv6YFZVtJIA5S3IyzHYrY2/OOOn4V51TMEvhR6VLLm0+d/dY8yvPgNrKlhpet6VfSL1h8wxv+RyP1rz7XfDGteGLsW2sabPayN90uuVf/AHWHB/A19J6jLM18u62MbKrkEN14H3Tj8fqauXFwl7pM9jrOlf2jp8jkPFI24qMZypxxj65z0qqWYRcnGat5kVMvlGKlF3v0PkaivQPiP8O28JSw6lprvc6HeH9zK33om6+W/v6Hvg+lef16Caaujz2mnZhRRSgEkAck0xBxRXX2Hw48RajarcW1jI8bcZEbNz6cAjNWf+FT+Kv+gdN/36f/AOJqOddzp+qVuq/I4aiu5/4VP4q/6B03/fmT/wCJo/4VP4q/6B03/fmT/wCJp88RfVavb8UcNRXc/wDCp/FX/QOm/wC/Mn/xNH/Cp/FX/QOm/wC/Mn/xNHPEPqtXt+KOHoruP+FU+Ke+nS/9+n/+Jrk9Q0640y6a3uY9si0+ZN2RM6FSEeZrQpUUUUzEKKKKAFq5Lpt7b6fbX81tIlpdFxBMy/LIVIDYPsSK1fB/hi68YeJrTR7UFfMO6aTHEUY+8x+nb3IFfTXijwLp3iHwK/hqzijgWyQDTn/uSKOMn/a5B+uetZzqxg1GT3Gk2rnyHRVi6tZ7K7mtLmJoriFzHJGwwVYHBB/Gq9aCCiiigAooooAKKKKACiiigDpP+E/8W/8AQfvf++6kj+IHilJFZ9YnnQHLRTgOjj0ZSMEH0rL8RS2E/iTUptJj8vTnupGtk242xljtGO3HasugDd8YWdvYeMNWtbSMR28dy4jjHRFJyFHsM4rCro/Hv/I96z/18t/SucoA1PD3/IyaX/1+Rf8AoYr1XQtBk8R+I2slZkgVmkuJV6om7t7k8D8T2rynw9/yMml/9fkP/oYr6W+HNikOjXt6R+8u7yTn/ZQlQPz3H8a8bN67ow51vayOiir6HWWVlbadZxWlnCkNvEu1I0HAH9T71ja1ZaXYx6lrd0kplkgWFpIgvmxqMqPLJ6E7/XmugrlPG3i9vC9rZwWlqLvU9Ql8q1gY4UngEt7ZIGPU18rhvaVKqjHVv8er1OmdlHUztC0DRNXjkkhF5HcWjt5cp2KYmZwweMKoCH92MqAOCcg7snuyAQQQDkYII4NcXoGveLV8Sf2N4m0WNFki82O8s0YxKf7rHkdiO3OPWu1q8b7RVLSem61vv5ip2toeQeO/Cseh3kd7Yx7dPuWKmMdIZOuB/snnHpgj0ryrxz/yGLT/AK8IP/Qa+nPFNgup+F9StiAW8hpI/Z1+ZT+Yr5i8bkNqtmw6GwgP/jte9k1d1fi3V0Y148qOYooor6I5TQ0nTptW1OCyg4eVuWPRR3J+gr6x8A+B7Lw5pVu/kDz9oZQw5B/vH/aP6dK8Y+B+ix6hr7XMqhlVgnPoBub88KK+oeAK2b9nBJbv8jmt7So77R/Pv8jjpNT8QXniG/stOktlW2II81Oxx3q3o+vXZvLyw1iOOK4tY/NLx9GUdT+orGS51O38Yaw2l2iXLsQHVmxtHHPUVZXSdTkt9Z1XUVSO6ntWjjhQ52rj/wCsBXTKELWdlord76HnwqVObmi23d37WV/+ASQal4n1mOS900W1va5PkxyDLSAf59q2rC81HUdAab7P9l1AqwVZRgbh0OPSs7SXu7jwVZjSZoo7lVClpBkDB+YHg1a8J6jealYXMl7IryRztHlVA4AHpWVRaOySs/n/AME6aEnzJSk25K/l8u1inomt6lJNqsV+qzSWQGEt05ZucgevSqYvPFk1i+qK9vDCoLi2dOdg+oz+tWvDX/Iy+IT6TD+bVBcXV94tupbSwfyNLjbZNPjmX2Ht/k+lXopv3VbS9+mn6mKcnSV5Nu7SSer16vyLUthZ+NvDcc9xAizSIy5IyAehB9VPpXy1468MS+GNdkgKFYXJ2A87COq5747exFfYtjZQ6fZx2sC7YolwoJyfqfevIfj1oiT6N9vVBvUB8+6kA/8AjrfpWSanzQW2rXl5fcdXLKlyze+ifnfS/wB582UUUVznYdj8M/CyeLfGtpZXCk2UINxde8a8kficD8a+itUN5qVxD9nVDC+3y4kT5lQMMAdsDgn/AArzL4DW0ceneKNQYgMI4rcHOMBtxPP4CvRnvrrSrDztLlWW+kSOJFnlyilnXJI9QufbivPxklKSpt2XU9DBxcYupFXfQmaxv7Nvs8j26zSQkrEQCXUNzwOSOe3c01dC1iKF5ZIVDEszDhjncD0HbvUviiaS1+IGkT2/lfaU0m88jzvul90WAcEVJ4Vm103Gp694k1iD7FtISGFdltGqdXG75uxOSe9ZvB0ublcnc0WNq8vPZW6mfd21/camsK7JXYPtCLyTtH3vwx0qSeG9jtZ4xJFuWVlZWXkNt/njPtS+Br+GbRtU8V3TTLYJNdPbGTnbbBywIH0GMe1L4gih/tZb2CeRLTVrQTI6tgGRF5yP9pCvv8lYzwbjTlO+v6GsMapVIwtpp06kFpp9vr2j3egagQ9nfxBF+XmN9uVYe4wPyr5c1XTp9J1W7065G2e1maGQe6nFfUWmeUs1tIZ2Tayt/rcAYXP5ZrxT42WaWfxR1FoxgXEcUx+pQZ/UV05dNum4voc+ZQUavMup55Vix/4/rf8A66D+YqvVix/4/rf/AK6D+Yr0JbM4afxr1PtLQX+yeBbKWFV3JZhwMcZ25/nXN6PrnjfWNGj1S0h0l4CGwjBlc7SQR1x29a6HSP8Akn1v/wBg/wD9krz/AEnTdfPw8+36brMscCLITZogHygndhuueprCUmkrX26fI9fD04T9o5WvzJXd+t+x29j4k1DWfBh1XTbSH7epKtDMxCZU/Nz6Y5FQad4wuJvAVz4hureLzYt+I4shTg4HXnqeateEP7PPgeA6cpWExMSrNlg/O7J9c/0rktI1BNN+D08zwLcCSV4hHJ907mxz7DrTcmrNvoTGhTm5xUdppLvZ30/A0LnxB4r0rTLbXNR/s6WwmKF7eJWDqrdMNnk4rvprhIrCS5YblSMyYHUgDNeUat4Wv9G8L22o3GrfboLQxyNYylvJwSOF55611msaZqGs6d/altrdzY27WYb7KiAqeCTkn1ziiEpK6aDEUaMnFqSSu1dJpdLK29/M6DQtVh13SLfUoY2SOYEqsgG4YJHOPpXzJ8a0RfGtxtUL+9boP9lT/MmvaPAWi6hNo2l6jHrtylqMt9iCDy8BiCueuD1rxn43c+NLj/rq3/oKU+Zvlb/rQzlShSdaEHdJeenvLueYUUUVseWFLSV6j8GvBCeINebWtRj/AOJTpbB2DDiWbqqe4HU/gO9KUlFXeyBK56h8LPBv/CG+FFubuPZrGqqHl/vQxYyqex7n3OO1d0F2xsyTMrBsj5vao7yWOW63/wAZB3ZB4GKVjB5D7l/iHOD6fzr5DF4p1q8pNqy0WvkehTp8sEu54z8cPBwljj8Z6fCAJNsWooo+63RZPx4B/wCA+prw6vtRYrS8sprC8hEttdR+TNGw4ZSMV8n+OfCdz4N8VXWlT7niU+ZbSkf62I/db69j7g19DluK+sUVf4luclWHJK3Q5qiiiu8yCu51LXdS8M6Xodlod09hFPp6XU5hwrzSOzZZm6ngAAdAB9a4aul8Yfc8O/8AYGg/9CegBP8AhYHi7/oYb/8A7+mprfxr42vJfKtta1SeT+5EzMfyFcsASQB1PAr6A+ISv8L/AIaaLo3h9zZXV83+mXkJ2yyFVBb5hyMsw+gGKAPKZvGvjWCZ4pda1SORBl0dmUr9QelQf8LA8Xf9DDf/APf01v6L8QZZPCniHRPEV1Pe/a7MrZzy/vZElDAhC552EgHrgEe9eeUAdb478GXfg3Xri2nULavPILMswLyRD7rEDtggZ9QfSuSrcn8O+KbqQy3GjazNIeryWsrE/iRS2/g7xNcXCRR6BqW5zwXtXVR7kkYA9zxQBN49/wCR71n/AK+W/pXOV0HjW4huvGusT28iywtdPskQ5VgDjIPccVz9AGn4e/5GXS/+vyH/ANDFfUXgGVZPCyqp5iup0b2PmE/yIr5e8Pf8jLpf/X5F/wChivdvh5riWeuXmkzvtjvZS8BJ4EoyCv8AwIY/FfevCzym6lOy6anRQdj1GvJPixDcSeN/Cnk3LWhkPlR3I/5ZMZF+Ye4BBr0eTxFpMN1c2097HDJbsEk835RnAPB7/eX86xPE8XhXxXpYs9Uv44jG++KVXCyRNnbkHpzxx6EGvn8BKVCvGcou3p3RvVtKNkc7bC/8FfFHS9Cg1a/v9N1SEtJFeS+YyN83zZ7crn6E16lXnWhaL4W8NalJrFxr82q6kkbIktzJvdFA5Cjucd/TpXZHxHooyP7UteMZ+fpnp/L8O9Vj71ZxcE3ZWbta77hTdlqWNTnW20i+ncgLHbyMc+ymvlTxqCupWKntp9uP/Ha9/wDiTraWejjSY2/0m9++AeUhB5J+pGPz9K8C8df8hi0/68IP/Qa9XIqThq+v6GWIdzl6KKK+mOU90/Z+ljju7gOwBLsBk/7I/wADX0H5sZ/5aJ/30K+RPhjqsFnrxs7pd9vdbTszjJU9PqRn9K+m4fCXh64hSWK03xuoYMJW5B/GumShKMZSb7bf8E4lKrGrKEUn11dt/l5Fqx0uGy1q+1EXYY3QH7vgBce+ea1/NiI5kTB/2hWH/wAIZoX/AD5H3/et/jWHfWXhqxuJ4W0m4doRwVkJDnAOB83uOaXLCb3b+X/BFz1KUfhSXq/8i7L4RiSWRrDWJ7OKU5aGN+Pw5FbOj6bZ6LZm2t5SwZt7M7glm/yKyrDw14e1C0S4jsHUNkbXkYEEHBHWrMnhDw9FG0j2m1FGWJlbAH51U5qS5ZSf3L/MmnSlF88Yr73/AJaDrfRI7e41WVb8br/PYfJnPTnnrWZb+EpbWLy7fxFPDGDnbHgDP/fVUII/Cc00KGyeNZAMs0r/ACk9BjOSMd+gyK6P/hC9C/58z/39b/Gqc1DRyevkunzIjTVTWMU7eb6/IvaZb/YLJbeXUGunBJMsjcnP41wPxpnhHg6QbwT5cnQ+wH8yK7D/AIQvQv8AnzP/AH9b/GvDvjLqGnaejaRpiBBKwV8OWyFOWPPvgfgamn7O7mm9E+lt9O5pU9raNNpJNrq3tr28jxOiiiuU7z2z4C3ivaeJtMK7neKK4RcZJ2Eg/wAxXfzPZFLHYmJgY9vykZG4ZI9utfP/AMPPE/8AwiPjOx1OTJtsmG6UDOYm4bj24P4V9G63mP7OLeMS2cmx4J1bKMhII7de2fQ15mYU9Of5HqZdP3vZ/Pcsa2LHUPiRo8E0kUkI0y7Eo3DAw8XBOeKk8VeH7fxMbOzk162t9FgIeaxjx/pJHQM277g/ugf0xhWum2qfapU0e2aSeFlmdVXfIGY5ycck+/HFZ8Og6S/mOfD9gcsx2eQg2/MOOn4VKx1O93HVh9QqdJKyOv8AEWs+GtD0ODSbu1bUbe+LQizslVy4A3NkbhhQB6+lVNZvbHXfArXNtaS2UmmyCSC1vNsT/uxyoAJ4KEgc9xWLNpllZakHtdFtbOUK+HhjVd3ygHaQAf8A9dWb+2jvLJ1vdJhu1jkZk8xQ+wleSMjgfrxSeOi24cumxUcDJJT5tdx+lNbTT2g2b/MdNpCHnKcH9c/SvE/jRfpe/FDUwhytuscGfdUGf1Jr2xNUt/C3hy416+TZbWMQFsgOBNKV2qij/OPwr5bvryfUb+4vbly89xK0sjHuzHJ/nW+X03GDl3McwqKVTlXQr1Ysf+P63/66D+YqvVix/wCP63/66D+YruezOKn8a9T7C0PXdC/4RWys7nVLWNharHIrTqGHy4I68GptH1Dwroukppltq1obdN2BJcqx5OTk/jUnhnR9Nl8NadJLp9q8jW6FmeFSScdc4rV/sPR8Z/suz+nkL/hWcVKyeh1VZ01OUdbX8tzA0STwnoVjPZWmtW3kTOWKyXattJGDj0qO1Hgy28PyaGNTtHsXJLCS6UnJOc5z69K50+IrQPGjaZoeBIfNygQ7cHgAjqPXpXoq6Ho7KCNLsiD38hf8KmPvbW0Nq6lRfNNu7d91uupwi6D4Q/dxXHimS5s4iClrLfqYxjtj0rsR4l8OeT5P9raf5e3bs85MY6YxnpXO+JrzT9Ivfstto1k22HfI8kCgAscLt4+YjDEj6citXw7Bpms6Sl5JpFhG5JVgkasCR36cfSiLtLlVgrJzpKpUu101X5Fu38QeGrSBYbbU9NiiXhY45UVR9AK+a/jLcQ3XiyW4gkSWGSRikiMGVhtToRX1D/YGkY/5Bln/AN+F/wAK+YPjPDHB4uliiRY41kYKirgD5U6Cqlfmj/XQik6bpVXG97Lf1R5nRRRWp55paLpN5rus2el2Me+5upBHGvbnufYDk+wr698N6JaeF9JsNBsFDQ24/fSdDLIcbmP1P+HavPPgf4JOk6LJ4qvYgL28jK2auP8AVw93+rfyHvXp1mJPtQLMN3mHdgdeRXj5li3GcKMOrV/8jelTunJkWreI7qw8T2mi2miPfGeD7RJMsyoIk37Tww+Y98ZrcuTbWdvPdygCOKNpH47AZP6Cua8Q+JdZsvE0Gi6Pp9lcySWZumkurhowoD7cDapzUul22vX/AId1aHXLmze9uxIscdqCIoFZNoUE8nnJJ967W6TqckrN9F12M7StdFPTPG6Xvhwazq+lTaXazFTasAblnVgdrFY1yv0Pr1rk/GmiL8Tfh9HqFtavHrFkryW6shVpFBIdMEA4O3Iz6D1Nd94Yh1HS9CsbXUYreC3s9PhjZjJ84kVcPn+HaMDBz61g+CNRu9Q0aPUpZ5JTcXM0kTSEkmIzPsH029PauXEV3QjCrbd2eltNfyLhHmbR8kEEEgjBHrTa9Z+NfghdF1tfENhHjTdSYs4UYEU/Vh7BuSPfNeT16kZKSutjF6CV0vjD7nh3/sDQf+hPXNV2uuaRqWtaVoF9pVhc31sumpbu9tE0nlyozhkYLnaeQeeoINMDiwSrAjqDkV9BfEYt8T/hro2teHk+2XNm+bqzhG6WPcoDDaOeGA+oOa8T/wCEU8Rf9ADVf/AOT/Cp7fw/4rs5fNttI1qCQfxxW0qn8wKAPYvDI1Kw+D2u3es6VZw6tZRM1j9qsIhMsQCgMVK5IBzgsPzrwWeZ7ieSaQgySMXYgAZJ5PA4FbT6F4seWSVtJ1ppJVKyO1tKS4PUE45FVv8AhFfEX/QA1X/wDk/woAr/ANuav/0Fb7/wIf8Axpsuq6lPG0U2oXUkbcFHmYg/gTVKigAooooA0/D3/Iy6X/1+Q/8AoYrv58i6lIJBEpIIOCCG4I968wR2idXRirKcgg4INdUfG88p33OnWc0zcvIC6bz3JCtjJ74ArkxNGdSScVc0hJJWZ65oXi3R7xWtvE9rH58hG6+2nbJjGC+Put8o5HBx2rs7bw54evrhr+3jhuo2GAscgaJTkEsAP4sgd6+bv+E1P/QItf8Av7L/APFUqeNDG26LSbeNj3jnlU/o1eRVyqrN3g3H5qxqqsVufSieFNEs1mkmtVcMWZnnbhARgqOgC4HTtXL63r3hLSY5YtNsba/vXGCIyTEOCMu+eeCc4yT3PevE5PGzzf63TYZQO0lxM382pP8AhNMDA0i1/wC/sv8A8VU08prJ3m2/n/wRurHodVeXtzqN7LeXkxmuZjl3PH0AHYDoBXJeOf8AkMWn/XhB/wCg1J/wmnPGk2f/AAKSUj/0KsHUtQuNWv5b26YGWQjO0YVQBgADsAAAB7V62Hw84T5mrJIynNNWRRoooruMiaKaSCZJY3KOjBlYHkEdDX0H8M/ipBPBHpuoybZBwV759U9Qe69R2r54/CnKxRgykgg5BHatITto1dMyq0udpp2a2f8AXQ+7bTUbO+j321wkqkfwtyPqOorldV0K8vdauHjgkCSnAnWYAKCFGSvU4AbjvkV8uWXjnX7ABY70yKowPNUMR+PX9a01+KXiRRjzo8f8C/8Aiq1g4QfNGT+7/gnPVp1ai5ZpP0f/AAD6v0C0lstO8idXV1kbJeTfu/2h6A9cdqu31tHeWM1vIgkSRCpQ96+Rx8V/EY/5aRn8X/8AiqX/AIWx4iP/AC0j/wC+pP8A4qpapuXNzfh/wSl7VR5OXT1/4B9BR+H9XW9tpijBVaPI39AMZ/ix29K7mSaKCPfNKkajqzsAP1r5BPxV8SHpJGP++/8A4qqV18Q/EV0u03KR+6RjP5nNXUlCpbmlt2X/AASKNKpSvyx37v8A4B9DeOfidp2hWEkdtcBpXBAZereyf/FdBXzBrOr3GtalJd3B+Zj8q9lHYCqlxdT3c7TXEzSSN1dySTUFYymrcsVZHRTptPmk7v8ABeglFFFZmwvSvV/hx8TYNMsl8N+JS76VuzbXK8vatnPTumefb3HTyelpSipKz2HGTi7rc+uobCeWw+2WN5a3tlJD8k0KhkcZPXGT0PQd6y4VnzJvdFkDNvyufm3j9M1856F4r13wzMZdG1S4tMnLIjZRvqp4P5V2sfx18V7FW5h0+4YD75hKMfrtIH6V51XL0/gdj0qWYyXxq569fRXb34QlXJDBdiZJO0feA9sdKsajNaeHdNa98R6jFZ2ZcsqFB5spx0UDnd1rxS8+OXjG4gMVtNaWYIxvhgBf82zXBalquoaxdm61G9nu7husk0hY/r0qqWAjGXNN3Iq4+UoqMVY6jx/4/uPGd9HFDH9k0ez+W0tQeg6bm9WI/L8yeJoor0EraI4G76sKmtpPJuI3IyFcMR9DUNFAJtO6Pqbwx8VtAg8P2cFy8oeKIIdgDA4HB65B9q2v+FueGe7XP/fC/wDxVfIOT2Jpcsf4jWfLNKyf4HW62Hk25Qd32f8AwGfSaeJfCCks9/qLup3Qs0cWYW4+YepwoHOeM+prqF+LPhpVA8y4OB/cH+NfIWT6mlyfU0lTktn+Bc8TRn8cG/n/AMA+o9a8beENcmSS5uLxQibdqKuDzn1qzovxD8J6JYC0t5rt4wzPl1XPJz618p5OetBJ9T+dHs5Xvf8AAHiaLhyOLt2v/wAA+vD8W/DIHElx/wB8L/8AFV87fEfxHB4k8TTXduMIXLZBz1wBz9AK40E+tISelUou92zKVamoONONr73d9N+yG123wx8FP408WRW8qkaba4nvX6fIOiZ9WPH0ye1cTXWeGviH4j8IWUlnot1DbRyyeZITbo7McY5JBP4VZyn1ltR+IwY40j2RIvAUDgACoIVKOxUvuVjg+vNfN3/C8vH3/QWh/wDASL/4mj/hePj7/oLQ/wDgJF/8TXi1Mo9pPnlPXvb/AIJ0KvZWse9RaBdweIDq19rVxqUxt2tkDwRxhELbuNgGeeOa2JYGltpAlzPA+cq8T4ZeOozx+YNfNn/C8fH3/QWh/wDASL/4ml/4Xj4+/wCgtD/4CRf/ABNXLK5Sqe0c9fT/AIIlWSjypHt974X1LX0FtrXirUJ9OcjzLWKGODzB12uyDJH5Vu21lDZiO1t0McESKkaLwEUcAD2xXzmPjj4+/wCgtD/4CRf/ABNH/C8vH3/QWh/8BIv/AImivllSuoqpUvby/wCCEa3K3ZH0Zq+iWXiHw9daJf5MF2m3ceTHJ/Cw9wcH8K+Qdf0W88Oa5eaRfx7Li1kKNxww7MPYjBH1rrv+F0+ON27+0oN2c5+yR9f++a5rxL4s1Xxdfx3usyxTXUcfliRIVjJXOQDtAzjJruwlGdGHJJ3S2M6klJ3RhVYtr26s2Zra5mgLcMYpCufyqvRXSQX/AO3NX/6Ct9/4EP8A40f25q//AEFb7/wIf/GqFFAF/wDtzV/+grff+BD/AONH9uav/wBBW+/8CH/xqhRQAUUUUAFFFFABRRRQAUUUUAFFFFABRRRQAUUUUAFFFFABRRRQAUUUUAFFFFABRRRQAUUUUAFFFFABRRRQAUUUUAFFFFABRRRQAUUUUAFFFFABRRRQAUUUUAFFFFABRRRQAUUUUAFFFFABRRRQAUUUUAFFFFABRRRQB0P/AAjcBGRqQI9oD/jS/wDCNwdtRHtmBsfzr0jUfDtpeKzwKtvcdmUfKx/2h/Uc1x80MttO8E6bJUOGX/D1FcdOu57M8+niXU2f5HH3lrJY3L28oG9Dg4OQfQg+hFVq1/En/IVH/XGL/wBAFY9dcXeKZ3QbcU2FFFFMoKKK3/CHhe68XeJbTR7TK+a26WTHEUY+8x+g/UgUAdl8Ofhavi3QdQ1K/n+zLKrW+mEnHmTjnd7qMY/E+lecXtlcabfz2V3E0VzbyGOWNhyrA4Ir6jN7a2d3ZadpdnKNP0xTBbhAMHCgl8/17/jXnnxc8Oxa3pieNdNhZJYyLfVYWTaysMBZCO2eAfqvvTsc1LFQqTcEeK0UUUjpCiiigAooooAXFaelaFq2uz+Tpem3V5J3EERbH1I4H416D4J+HNodOg8ReLPNSxmIFlYRD99eE9PcKf19QOvsWm6dq93DHZ25g0LTAD5VlpxUPgHB3vjgg8HFRKSTsdFPDymuZtJd3+h4Vb/Bfx3PFvOjJHntLdRqfy3Vmap8M/GWjRtLeaBdeUoyzw4lA+uwmvfpvCds13PveWcIXAaa+Yn5SMk89gefqKvXHh660yGCXSNUvLOV9x2PdeZGwC5ztfIx1P0qFUfY6HhKWiVTV91p+b/I+R2VlYqwIYHBBHIpuDnFfSPifwvpniM/ZvE1nDp+rSYW31qzX93I5GVWYep9/wACK8H8SeG9S8K61LpmpxbJk5VhysinoynuDWiknsclWjKm7S67PozFoooqjIX607BIyPxpCc17R8JPh7pnibTpbzUBuVcZAAJySQByCMfL+tCVzalT57tuySu/yPFsUY9M19U3Xwx8BWcxiuLqKGUDJSSSJTj6FaltPhT4IvlLWsonA6mJ42x+S1XL5mnsIJXcnb0PlHmjmvq8/CbwUJ/IMi+dnHl7o92fptzSzfCXwXbsFncRMRkB2jXI/FaLLuL2VP8Am/A+T8H0owfSvq6H4TeC7h9kLrK2M4Ro2OPwWrP/AApjwp/zyk/JP/iaLLuJ0qS3l+B8lKCTgDmk746+lfVWo/Bvw4NPmNrGyzBCQXVSuQOhwAfyNfMutWK6fqs9vGSY1IK564IyKTWl0EqKVPng7q9n+hm0UVf0VQ2t2KsAQbhMg9/mFCV3Y5m7K5ZXw5qZUEwIuRnbJKitj3BORSf8I1qn/PKH/wACI/8A4qujdtzu7tySSSTW/pPheW8jW4vWaCBuVjA/eMPU5+6P1+ldMKKm7RRx1MS6ceaTR57/AMI1qYGTHCP+3iP/AOKoHhvUz0jgP/bzH/8AFV6g1vY2N3eQwaPbSJbRBzJNlixK5ALNkD8TULXOnXEsNvLo9oJJDtZwhRYjv2/McAr2x7kDPetXhYrRvX+vIxWNm9UtP68zzb/hG9U/55Rf+BEf/wAVS/8ACNamekMRPYC4jJP616TqXhHarS6azMRyYJDkn/db+h/OuWKkEhlIIOCCMEH0NZ1MP7N2kjWlivaq8Wvu/wCCcVLG8MjRyIyupwysMEH0NMrY8S86vuP3mhiZj6nYOaxq5ZKzaO2L5ophRRRSGFFFFABRRRQAUUUUAFFFFABRRRQAtFHavZvB/wAOtN0PTrXXvF8DXN1c4NhowX5nJ6GQf0PA756UpSUVdlwhKclGKu2ed+H/AAR4l8T86RpFxcRZwZiAkY/4G2B+tdlH8BPFewNcXmj27H+CW6OR+SkV7LbafrGt+UmoX62NpgiPTtOfywijjDOBnj2wPSqj+DdIW9nUW9tIqsygyyszcYPOfQZ+uaxdWW8UdkMLTT5aktfJX/G6ORBDAFSCCMgg5BrC8UWKy2YvVH7yDhj6oT/Q8/nVXwL9o/sWbzN3k+d+5DdhjnHtn+tdBfoJNNukYZBhfP8A3ya823s6lux8g17GtZPY8d8Sf8hVf+uMX/oArHrX8QnOpIfWCI/+OCsivWh8KPdp/Agoooqywr6H8I+GLnwP8PJbryVGt6vFumLttaCDBIUd92Mkj/4muD+Efg+LWtZfXdTTOj6SRI4I4mm6onv2J/Ad69iu7e916R92oyRG6uGjI2BlRDwAB2GOM98+9NHFjKrUOSG7M7SjeCeEQC3LAnbnP9wds/QY/Gl0e7ZdUu7fUYIHsbxVt7mEvvUxFDgg55wP5mrd1pY0bxFa6QNTnM8kDXIIj2qqDCdfXPNRa3oTeH7myNzqktxPqErIuyEKPljJx144FVdHlqjWp2aT9136HgnjzwlP4N8T3GnNl7V/3tpNjiSE/dP1HQ+4rmK+mfF/hP8A4TTwPHYKxl1rToftFlIVwZBj5oj7nHA7YX3r5nZWRirAhgcEEYINQe9TmpxUkNooooLF7V23wx8LweJfFG/UMDStOiN3eFuhVei/if0Bria9t+GVgsHwvvZv+Wmr6rHZtjg+WuCR+rVMnZNmtGn7Soovqz0iyt49Vs5/EV+wWSUolnAE3fZYd4CgDjluM47Gr+nCwt5I2fUI1Xay7pE2L9485J6nt7CrPmW//COsYoGCZQBPMwMeYoGDng9K808bLNJdWckFvJ9g8thzJuEZDNyfQnIH1zXLJ2s9z2qFP283TbcVey207I7qf7DLe3U63g2s0hz5Yxww6NnBz0B+uasalJp1zp8AS/icBpMvEA+0+X3weDx19a8isYNTvtGu4rGKW6EN4QYBKFAQonTcQMBu3qc1BO974bjM8s8C3scBeaOL7sZI/wBUxydxxgHHr6ild9tzoWDpt253eN+nRaavzPbLTT7C/huradkmhlGHiaPGfl6DnjH8xxXnHinQl8WeErzS2kM+r6ND9r0+dxiSa3Iy0be46fULXpmhzwTbpFgkjZ1ViGkz8xTPPP1ArmYpobfXtDvYIGjJnW2lDSbwyyR9PoMLj9a0T5WrHAoqqpwd9k1to7frsfKdFbfi7TV0jxjrOnoMJb3kqJ/uhjj9MViV0njiivpz9n7/AJFm6+qfzevmMV9Ofs/f8izdfVP5vVLZnTR/hVPRfmi/rz6RH8TJW1wRGz+xqP3oJG7twPxp2krpk3xDspfC8ZWzSFvtbxowjPBwOfwq/NZx3fxZkS5tlmh+wg4ePcuc+/Gai8r/AIRL4iRJbRMml6ogDIinZG+cZ9Bzj8GNa30t5Hre0i6ahFvm5Nr6PTXTvbUb4i021s/iLoNzDCFmupi8rcncRgD6cVV8aSac/juzXU7WW6t47MjyIlJd2JbAGCDWv4rR28c+GGVHKiR8kKSB061b13XbDQPENvPf6UfLkiKjUlQMVP8Ac4Gf/wBdJN6ehnTqS/dNJt8rWjs93+hR8Hv4U+3zPpdlLZahHGRJHPuDhOM8Ekdh71R8U+N9PvIbD+ydVkDJdo0/lh0/d988DI9qk0u5TxH8RI9V06GQWFvblJZ2TaJWIIA569f0rU8WeGXvY9O/svT4Mx3aSTbAqfIOuemfpRopak/uYYmLrXu0nq9vJ3RqWXibSdct7qLTrsTyRRZcBGGAQcdRXx94s/5GGf8A3U/9BFfaH2K1tbWc29tFFujIJRAM8H0r4u8WceIZ/wDdT/0EVGlnY5LweHnyJpcy332Zh1oaJ/yHLH/r4T/0IVn1oaJ/yHLH/r4T/wBCFKHxI4JfCz0bwzpi31+9xMu6C2IIU9Gftn2HX8q7fknJrH8LxCPQYmHWWR5D/wB9EfyAq5qmoxaTp73ksckiqQoSMZZiTgAV7tCMadLmfqfMYmUqtblXoh96swtZjawxSTuACsgGGHT5vXioNOtpFtpIru1tlAO1VRFwVyTggcYziuf8Oarql/4rvor/AMyFVg3LaE/LFyuOPXB/Wku9RvtW12+s4NVXTLGx+VpsgF3zjqcd88egqPbwaU1fqrGqw803TbXR3OxrlfFumKoXU4lwSQk4HfPCt9ex+orX0H+0/wCzgNVeKWUN+7micN5idiccZqxqkIuNIvImHDQv+YGR+orWpFVaWqMaTdGtZO54t4m/5Cq/9e8X/oArGrZ8SndqiH1t4j/44Kxq8Gp8TPpqXwIK7/xB4i1vQNYOjaFdyWVlbQxKkNsgG4mNWZmIGWYkkkn19K4Cuw8U6heaZ8Qbm5sbue1uFEAEsMhRgDEmeRUFldvH/jBG2trt6rehOD/Kn/8ACdeNNu7+2dQ24zn2/KvffiD4J0r4l2V3NpM0K+ItLc27N93cRz5cnseqt7+ma8gbXfEumfCrU9Iur69t2tdWis3hdyHjjMUhaLPULlBx0/OgDAh8d+MriUJBrV/LIeiJ8xP4AU6Xxx41glaKbWNQjkUZKOMED6EV6drSP8NPgppL6N/our6y0Zub2PiUBkLkBuowMKMe56muK8MfEWVNO1zS/E15c39vfabNDbzT5mlilYcAMfmCk9RnGQDQBgf8LC8W/wDQevP++h/hU0PjjxpcLI0WsahIsS75CnIRfU4HA965QHBB9K+gvC+pvqv7P/iq6ktbK3kVZof9EtkhBUIpGQoGT8x5oA8mXx34zddy61fsp7jkfypG8e+MY8GTWb0egfGD+BHNdT4R+KOreHPDWk+HPDNhHNqEtzIZzcoXEjuwCLGAw7dc96r/ABk8Q6jq3iW20vUJoZJdKgEU5t1KxmdgGk2gknA+Vf8AgOe9AHL+M44k8QmWGGOEXNrbXLxxLtRXkhR22jsNzE47VztdH41/5Ddr/wBgyx/9Jo65ygD0r4Q+GrXVdeuNb1RQdK0WL7RKGGQ8nOxT69CcewHevbtPtft9jdeI9UOb672eWmzd9mh3jagz69T9a4LwDZLb/CCziC/NrerhZCOC0ankf+Qz+ders8R8PsyxHAKYXzCBjeMY54PTmsKj5pW7I9ChHkpKS3bt8l/mynaS6ZZCOSe+jijIZd8ihF+8fU857elVrq80k38txJqKIsrvsZgpV8bfutnn0HpzXA+OUuH1K1ljt5fsJiIX59yx4Y9fQkkfXmuVhctZToSxKXj7QzZVR5acAdua5ZVWrq23/DHsUsBGbjPnd5Np7aaXNrQ9Tg1G1ZbazltY4SFWN1CjGOw9KfrlwLbRrl84Z08tPctx/ifwqITa3s3TJaoFALHdwOOec+v5Vz2u6qNSugkJP2WEnYf75/vf0H/16xjT5p6bH51ClzVLrb7zi/EnGqKB/wA8Iv8A0AVj1seJP+Qqv/XGL/0AVj16kPhR7VP4ELWho+k3mu6vaaXYxGS5uZBHGvue59gOSfQVn17x8KfDZ8L+HW8W3du0mo36+VYRAfMkROGkx6n+X1qxzmoRcpbI37230zw7pNj4S06ZHt7SNmvGHBkn4yzH8T9OPSrumJpJvrLlVkF+CuNy854HTk/d+X3JrM1SffrBxZSxsEfdlF+fp0P8XIPPvVyfUJLXT2nFhL5kUzOj7FYKw5yfRQcfN7VpbQ+elW560qk+nkX/ABkLU/E3TfteNn9lSYGCefMHQd+M1Z+JYi+1+FhIAYvtUvUZz+4bFTT+LfDM8kN/rGnXUd7BGY1kW0kmGGwSqsgOQcDg4rk9Y8R3Xi7xVZ3MOnXVtpemiRYVnTZLNK643lT91QvTPr71HketOcOSU7qzWn3E0txZWFxpd3p8uy6iMe0KW+Yc7uMcgjv3rz/4weFoYbmHxfpKf8SzVW/fqo4huP4h9GwT9QfavQNUud0enr9glR8xbXZFA78bh0JH8PatDTYrfWtKu/D2p20v9nX0KoWYDET5O1x6NkA/gDVNaHn4Kv7Os4PZ+XU+WaK1/Emg3vhfxBeaPfLia2fbuA4deqsPYjBrIqD3Rete7fDi5Q/Cy3kwG+wa8jSqwyNrAAZHp81eE16f8HdXhfUNR8K3snl22tQ7IXJ4SdclD+PP4gVMleLRth5qFWMpbX19D6CJuG0KT9wFlyhI8rJxvHBGORjPHtXJ+LZblvCc3mW3lruQkrFs6ycDp2GMexra0i7nvPDM9pcv5V7ZypDcIzgFZBIpyP8AeHIPfNSLpL6pAbK/ZZo5UkUqJQSG3HcwOOCDjn1HFc0k5JLyPVoyVCo5O2kr/wDDHlOh69caTpepW9qiCW4u2/esgJQeWgyCe/p6ZPtVDTobWTVhdazIosrc74oCCwlfBIeQ/wB0HnH58Zr0J/h/paJcWcZkECzSSb/tp8wMNoOT1wFxkeuKNS+GWipZRqhuw8wcESXzYYBM5+nU49Knlle/Y7XjaDpuDi/ebbs1r1V/JHaaPM8haTyk8tgPLdY9oI2/eXjv+ua5m4NxPf6HaywKkj38LA+VsY7ELOen4H8K6jRbeaDzI9+Y1RVx5gbChMLn14xXBS60ujabqPi24m3waZbfYtPy2RNcEbSV9QDx9M+laJN2R51NqPPN20S+97HhPxAuUvPiDr9xEcxtfy7T64Yj+lc3T5JXlkaR2LO5LMx6knrTK6TyBw9a+hPg3q99pvhl/smj3F+JCu4wuo2YLdc+tfPXGa+m/gB/yLF19U/m9VHZnXh5KMKjkrqy0+aOy/4SrWf+hQv/APv6lB8V6z38IX/4ypXX1xfjOa8ivbIWZnLbHwIpdnJZQCRkBuvfp1pqzdrF0XTqzUFBL5v/ADJf+Er1k9PCF+f+2qUj+J9XkBV/B16ynqGkQiofAFxcXEN5vN40IfKNcSBuSWJA5yOCp9DnIrsZjIsLmJVaQKdoY4BPbJodk7WCs6dKo4ci083/AJnJp4o1aMbU8H3qgdAJEAp//CV61/0KF/8A9/UrjE1nUI9QtfMvZRPvDNtwQrOxLBQeqnOOewHSvX1+4PpTkkuhriYQoNc0E7+b/wAzkJvFGtNBIp8JX6gqQT5qccV8n+LP+Rhn/wB1P/QRX2zdAfZJu3yH+VfE/izH/CQz5/up/wCgipuuUjnjPCz5Yparv2fdmFWhon/Icsf+vhP/AEIVn1oaJ/yHLH/r4T/0IUQ+JHnS+FnsfhaYSaGkf8UMjoR+OR+hra/p0rg/D+qrpmoOsxxbT/K5PRCOjfTsf/rV1EuqzW806vYyPGjhVeM9QcYP6n9K9yhWj7NX6HzWJoSVV266mNpP/JSNa/65D/2SsvTbDTP+Ez1i31pYtoZniWdtqnLZz9dp4/Gt+K+s4NTmuk0qT7dKAsrpncQSByD0HT8qr6jLpus/NPozXEkYIWQkgDGDglee/TtXM4Rtum02+vU6Y1HzPRpNJXVr6fMb4EdvsupQxszWUV0Rbk9Mc5x+h/Gt/V5xbaNeyntCwHuSMD9TVK01GG1hW2tNInhhTGEUYABGSff+tZPivVVnlGnQOGSJ90zDoWHRfw6n3x6VtGcadG17tGPs5VsRzWsmed+JRt1RR6W8Q/8AHBWNWz4m/wCQqv8A17xf+gCsavHn8TPoKXwIK7DxTYXep/ESazsraS4uJTAEjjUsx/dJ2FcfXd+J9E1zUfEB1fRtNv7uzu4IZILmyheRSPKVSMqDggggg8gioLOi8Wa54i+Hfxj1PWYIZYoLuffskUiK7iwMjPQ49RyDW38Wtc0TxT8NLHxBo8aB7vUYluuAJFdYpAFk9wCcHuMdq8nm8L+L7gATaFrkgXpvtJjj8xTf+ES8V7DH/wAI9rWwnJX7FLgn1xigD2HW2HxN+CWlxaN/pGsaQYvtFlGcynYhRsL1OQQw/LrxXlNl4Ture3ub/wAQW91pmnwRMQ00Zjknkx8kcasPmJbGTjAAJPaq0HhbxdbSrLb6DrcUi9Hjs5VI/ECn3fhzxnfy+beaLr9zIBgPNazOfzIoAnHjWT+xP7K/4R7w6R5Hkfaf7OXz+mN2/Od/fPrXr3gfQtXi+AXiSxm0y7ju7lp2ggaFhJICiAEKeTkg/lXiX/CHeKP+hb1j/wAAZf8A4mrP9geNicnSPEP/AIDTf4UAd38CfDnm+Pby91CF4n0iAv5UqFWWRvlGQeRgbv0ry3V76TU9Zvr+Vi0lzO8zE9yzE/1rXTw54zjkklj0XXlkkUrI62swLg9QTjkVXXwb4nZgo8OavknAzYyf4UAT+Nf+Q3a/9gyx/wDSaOucrpPGxUeI/IEiO9tZ2ttKUYMokjgRHGRwcMCOPSuboA+hPBF2p+Evhq5wrLp+sNHKCMj5mbGR/wADFeoyPN/YUh8oCQFCw8vJ++OCMcjGeK8J+DOow6jZ614LuZRGdQj+0WbE/dmQc498BT/wE17JpF/LqfhWaKV/KvLWRIbmJnCmOQOM/n1BPXNYTVpvzR6FJqdGPk9fR7fqc/4zkmfwlJuhES+ahO2PZ1c4HTsOleZ26l9JvVMLqv8AaH/HzH95D5a/LyCOcfpXtr6M2tWbafqBMkcqOPllUsrbjll9CDjn1rHs/BNnpUOoaXA8lxZXErs4uJ1JLBVGegIIA/liueUG7y+R6VHGQgo02tm3vbS1t97njl/falqQ2zsgizkRRsoX8eefxql9nlHJ2Ady0igD9a4TNGa6FRsrJnyiw9lZP8DU12eK41JmhcPGiJGHHRtqgEj2rLNFJWyVlY6IrlVjc8K2+jXHiO0TxBe/ZNLVt9w+xmLKOdgCgnJ6Z7V77feP/h/eXazDxM0UcaLHFEtlJtjReQBx6ivmalpkzpxqK0j6Nu/GXw9vLpZ5PFbhgCCBZS4OcZ7f7IqWTxv8PpLKS2PiqQK+45FjLkFgQT09Ca+baKd2Y/VKN2+Xc+kbTxt8P7N0eLxZJuTOCbGX0A9PYVF/wl3w7+0yTf8ACVy/PgbTZS8ALt9M9K+c8UYoux/U6Nrcp9IXXjT4f3UUMbeK5FERUqRYy9F5A6VA3jrwVbKYrTxAk0Tptk823lQ8dAML9ea+daKLsTwlK97HsPxR13wl4t0GyvrTWUm8QWY8uQeQ6/aIiemSoGR1H1NePUUUjoSsrBUsMskEqSxOySIwZXU4Kkcgg+tRUUDPoPwp4vt/HUEQFzBY+Loo1jkjkO2HUkUgjP8AtcfUduOnZ6PqNlb3qWupu2m3wUqYbpAi5z1Vs4brwR6V8mqxRgVJDA5BB5Br0LR/jDr1lZrY6vDba5ZKMBL5dzgez9fzzWUqabujtp4tqn7Oeq7rdHvM6WT6jdSfaiG3yZAiz/Ep4Oec9AfrUuv3GmW+nWy3OoRxLubDbRwdnpnr6H1NeKyfEzwpOQ48LT2hx8yw3JZc/mtDfGHTtOVW0HwhZx3Srj7VeSGVgfUDt+dQqcrvRHTLEYdKLUm2ulkvxPT7i6M+n3F3LdNpHh7GbjUJ18qSVcfciXqM9M9T2FeH/EPxuPFN5BZabCbXQ7AeXZ23QnsXYf3j+n1JrE8R+Ldc8V3YuNXvpLgqf3cf3Y4/91RwKw+1axionDXxEqulrJdP1fmNoooqznFFeofDn4l/8IlA9tIgMbDBDA7TySDkcgjJ+teX4FKfbp70J2NqNV029E09Gn1PpH/hf9l/z7W//fx//iaoah8ZtB1Qob7S7KfYCF8xnOM9f4a+fKKrmXY3WKhF3jTSfq/8z6Ii+N+jwXDXEOn2iTOqo7qzglV6D7varX/C/wCy/wCfa3/7+P8A/E182UuaOZdhPE03vTX4/wCZ9AD4v+HRj/iUWPBDfefqP+A1pD4/WQ6Wtv8A9/H/APia+bcmjPtRzeRUsXCW9NP5v/M+hdT+PNvPYTRQwxJI6EBkLMRkdgQBn614Rqd4dR1Ga5PG88D0HQCqNGKTldWMatfnjyxiorfS/wCrEq9o8iRaxZu7bUWdCzHsNwqjRQnZ3OZq6sd5LG0UrxyLtYEgg1q6V4jutMRYWH2i2HCoWwyD/ZPp7H9K8+j1rU4olijv7hUUYVRIcAU7+3tW/wCghc/9/DXRCtyPmi2jmnh3OPLJJnsMHijR5DvaVoJD97zIiD+Yzn86c3ibRoE/d3QbnO2GI8n8gK8c/t/V/wDoJXP/AH8NH9v6v/0Ern/v4a6Pr8rf8A5P7MV9/wAf+Aej6n4ruLtGhsla2ibgyFv3hHtjhf1Nc+o6Koz6AVzH9vat/wBBC5/7+Gg67qxBB1C5wf8Apoa551+d3bOmnhvZq0UkWPEuP7XZMgtHFGjj0YKAR+FYtOJJOSck0naueTu7nXFcsUhKniu7mBNsNxNGpOSEcgZ/CoKKQy1/aV//AM/tz/39b/Gj+0r/AP5/bn/v63+NVaKALX9pX/8Az+3P/f1v8aP7Sv8A/n9uf+/rf41VooAtf2lf/wDP7c/9/W/xo/tK/wD+f25/7+t/jVWigC1/aV//AM/tz/39b/Gg6jfEEG8uCDwQZW/xqrRQAUUUUAWrG9udOv4L6zlaG5t3EkUinlWByDX0N4e8RW/j62Gp6TLDa+Jo41W/0522x3iKQdw/Lg9uh7GvnDpU9rd3FldR3VpPJBcRNuSWJirKfUEdKmcFNWZrSqypS5on1hoGq2Ml0lpczfYr5FKva3SbGU57En5uvBHpV24it5NVumF0qsWfIMZyOFPr+A/GvE9M+NVzNax2XizRbLXYEGBMwEcw/HGCfoB9avS/EDwRI4eyg1iwj2/NEXduc84Ik6dKwlTlFWSud9OvRnNyk3F/Jr+vkeMUUUV0nlhRRRQAUUUUAFFFFABRRRQAUUUUAFFFFABRRRQAUUUUAFFFFABRRRQAUUUUAFFFFABRRRQAUUUUAFFFFABRRRQAUUUUAFFFFABRRRQAUUUUAFFFFABRRRQAUUUUAFFFFABRRRQAUUUUAFFFFABRRRQAUUUUAdD/AMIuxGRfxEeohlx/6DQPDSscDU7Y46/K/wD8TXp8+papaXcELyE5jyyCMFt3zc8cEDA5B47g5pbKJdbtpP7Xs4xOAhCbMFVKghg45Oefp0r0vqsG+WO55H12olzS28mv8jy//hGB/wBBG3/79yf/ABNV77QZrS2a5SaGeJCA5jyCmehIIHHuK7jWvD8ulDz4maWzJxuP3o/971HvWLcf8g3UP+vY/wDoS1zzpcr5ZKx106/OlKLujiKKKK5TsCiiigArpofBOrzeB5vFyQ506G4EJGDuI6Fx/shsLn1Psaj8H+F7rxh4ntNItcr5p3TS44ijH3mP4dPcgV9b22n6ZbaSNEjijOlpb/ZhbkjDJjBz6k+vvWNbEQo253uVGDlsfE1FdV4/8IT+CvFNxpr7ntW/e2kxH+siPT8R0PuK5WtiQooooAKKKKAHqrO4RFLMxwABkk16l4a+CGs6nbx3uu3Uei2jjKpKu6dh/uZGPxOfaun8G+D7fwB4ej8S6taR3HiC4i8yzt5fu2qcfMf9v5gT3HQd63IbnV9QvmnlvopZTHLy8f8ACCBj0A9f0rCrXUHyrVnoYXATrR527R/MxIPh58OLWR4JP7b1CWJisjFhGMgZ6YXinX/w4+HTGKLbremtNtEc2dyBiMgHIPP+c023W6Nxdb5bYPubdtQlNvlDG3vjGBz/ADq5rKagJ7BZ5rZkJiyyJhxw2OOm3O7Hf1rl+tTtc9V5RQUlG/Tv/wAA4nxD8FdWsbR9Q8P3kWuWQG4rANsyj/c5z+Bz7V5eysjlHBVlOCCMEGvpLSZ9Ws4JrmyvLWKRIYjzGdvPQH2A6fWsTxl4StvH+iz6/pltHbeJLRWa9tY+l0qkgsB/e4OD36HtXTSrqej0Z5WLwEqCcou8V+B4LRRRXQeeL3oo7VsaFoV1ruoLbW6HkjJAz16YHcnsKTaSuxTnGEXKTskZABJwAST2FWl0u/blbO4IPpG3+FfTPhD4Oadptsk2pJ+9IyY0Pzf8Cf8AouBXdR+DtAiAC6XbnH94Fv5mleT2RgqlWesYpLzev3WPi3+yNQ/58bn/AL9H/Cj+yNQ/58bj/v0f8K+zb/RvDOmWcl1d6dYxRRjLM0Q/yTXJHxJ4TyXTww724ODN9mXFJya3M6mIlTdptL7z5f8A7J1H/nxuP+/bf4Uf2Xfj/lyuP+/Z/wAK+ydM0zwtrNkt1ZadZvGxx/qQCp7gjsatv4R0Bxg6TbD/AHUx/Kn7xanWkrxs16s+I5I3jcq6MpHUMMGox1r628SfCfRtYt3+yxiKXHypISy/gfvL9Qfwr5y8XeDbzwtfvFKjeWGx8w5X0z6g9j3oUtbMqNZqSjNWb27P5nK0UUVRuLWpoegap4j1FLDSrKW6uG5xGOFHqx6KPc1N4Z8O3/irxBa6TYD99M3zOR8saD7zN7Af4V9B6fY22iWP/CPeFg9vYwv5eo6sigzXEoBJVD6jB56L0HvEpKKuzajRlVlZaJbvscNafB7RdJ2f8Jb4kWO5YA/YdNTzJPpnBP8A47+NbEfgn4cbNqaF4knx/wAtOQT+GR/KvTPDOnabYSAWto6Oyozys292Y88seSORVa3e1Lufs8obI6y5XO9se+Op+tYupN63SO2NGgm42btbW6X4f8E8uvfhl4Ev28qx1nUtFvH4SLU4fkJ+pA/9CrgPF3w71/wawlv4FmsWOI723+eJs9Mn+E+x/DNfTfiFLGVbeK5tnmQxSHazDruXg+2SOlYTWc2h21w1hbvf6Ccpd6VP+82x92jz+JK9KpVJRdpakPDU6kFKF030ez+f+f3nyjRXofxK8C2/h57XWtDfz/D2o/NA+cmFuvlk/njPPBB5FeeVunfVHA007MKKK37TwZ4ivrWO6t9JuGglG6N2AQOPUbiMj3oEYFFdJ/wgPij/AKBEv/faf40f8ID4o/6BEv8A32n+NAHN0V0n/CA+KP8AoES/99p/jR/wgPij/oES/wDfaf40Ac3RXSf8ID4o/wCgRL/32n+NH/CA+KP+gRL/AN9p/jQBzdFdJ/wgPij/AKBEv/faf40f8ID4o/6BEv8A32n+NAHN0Vdv9MvdKvGtNQtZba4QAmOVCpweh+h9apUAdDoPhm61q3luhPBaWcTiNp592C5GdqhQSxxyeMAde1af/CAR/wDQxWX/AIDz/wDxFafhj/kSbX/r+uP/AECGuu8LeE7/AMVXrR27eRZwkCe6ZchT12qP4mx+A79gZu7lJK12eet4EgQAv4ksFB4GYJh/7JUg+HZK7hrUJX+8LG5I/Py6+itQ8M2Xg/wrc3WgWCSaqnlrHcTRiaViXVSckccE9AAPSqOpeIvE2larHavK8jfY2YxLah28zy5G3MQACoKqMqeOhXnNPUWhxFzZ6lLe+bFqAihDArGAeOMHPr16VpHPof8ACuS1DVJtL+H1lPbOVnkghiRx1XK8ke+AazNLtNN/tKx/s3xAw1JSDceaWZJj3VegPcdTXu/WFGVktXZ79+1z5v6s5wcpOyV1t272O9dEkjaORQ6OCrKehB6ivNdasjpw1W0ySqQEoT1KkqR/h+Femd+K4rxygBmcdX09s/hIMfzp4yCcObsLATaqcvc8nooorwj6QKKK9S+DHgYeJNfOsahHnStMYOQRxLN1VPcDqfwHek2krsD1D4XeER4M8Krc3ce3WNUCySgj5oYv4U9j3Pufau2jaHym3LxsH8Jx1qzdJd3BUm2bJIJ56c0xBOgZfIbdtHGea+TxlSpWxDk0+W1ldM7qajGFlv6nG/ELwivjfwg9vAmdVsd01kxHLjvHn3H6gV8rMrRsVZSrA4IIwQa+2Yo7qH5xAwIO7r79K8E+OPgcaVrC+JdPi22Oovi4VRxFP1J+jdfrn1FexlVecqSp1E1JLqmtPmYV4pSvHY8eooor1TAK774ReHIvEXj22+1gNY2CG8uA3QhMbQfbcR+ANcFXtXwMRLfRPF2oN1SGGLgZODvz/SlJ2VyoR5pKPc6jxXO2qWb6iLyZA53NAHBXAYBVIzxx0wOcGp/D+jS6teGGC7uEwkhLiXIQFgFPB+pHr3rE1T+xzodvsWNbhd3l4V1y24Z28YPfOenFaej3hjmW0026FlNczr5kqQsX2CVSyjjjK8H0zXlRtKp7x9dUjKnhWqad1e2g+78LXOl+I4dJOoy3V7erJPGVypKgBfmPTOSPyrc1H4d6lKtvJFqjymEqWgkZsMQOSG/vH8vpVzWpDF8ZPDxEfmbtOuFAHbLrk/gK2bPQ9PtvGup6vHqMkupXMKB7Q3GREgAAwmeASAckdSfWu1YanqjxZZpiLRd1t2Wp53aWTfZrhGvruKdERcCUbg4J3YGcZHQ56YqDwtdNpV9BdJcOxiZlYb/lkBkwTjPpz+tV7OSC4l8R3GuWyW1xc3ryGB9x8lN+Arso45B6dTVXTzpwt8TIpjwQN6Mcp5vfA9MfjxXFL3J6dD3KL9tQbmn71tLd0cL8XvDcXh3x7cm1QLZX6C8gCjgBs7gPbcD+BFcBXt/x6iik0vwneoGDNFNFhl2naNhHH4mvEewr1U7q58fKPLJrsA5Ir6e+C/hCLT9KXU54wZc4QkfxkfMfw+6Pxr5u0mITavZxN91pVB+mRX2j4QiWDwppqKMboA5+rcn+dJ6ySOWp79WMXstfn0N+iiiqOg88+IDG91rQtJYkQTTbnA75YL/In866nU9Q0rw7pkf2sLDaE+SqLHuHQ8YHbANYnj3SLq7t7PUrBC91YybwqjJI4OQO+CBx9ap/8LD0K7swupWUxnUfNA0SuA3tk/zrO6jJ3PMc1Sqz57Ju1m9rWNrwncaBLb3EegJtjRw0uUYEk5x97r0rpD19u9cH8N4Zh/a101tJBBcTK8O9cAj5uB9Miu971cHdHVhJOdFNq3oLXDfErwzBrvhyeYxgy26EkgclO4/D7w+nvXc1FNGs0EkbjKspUj2IoaurGtWCnBo+Eb22e0vZbaT70blT+FVq6LxrCIfE9yq/7OfrjH9K52iOquFGbnTjJ9Uj3L4Y6c2g/D251uAY1bXJxY2b45SMHDEfiGP/AAFa9V+yw6V4csbS2tojDC4VldC275GJLcdSe/vXLaLbGPQ/h/Z24Py6ZJdLjA+copJ5/wB9q7a9+1nTrPymbzBINm0qM/I3TnkdKwldyl5HrRShSgu+r/JfkcvdeO7LQb1bd7ETzKi+YsKhNjYzzn+Lnp2rL/4WDYxpFLFp6TCVC29EClWDsCDkdRjGenesfxtoc1nfx6s8+Uuwq+UWBJbby+R2wABXIy4XQLM3LmO3dZ1R2O0H96+cGuSU6iuu36nt0cNhZRjO26d7u2q/Q9LufiTYXk9qjaZ9nj5jzIA4VmYbSABnr/Ou4tZT9muz9nRTsfZtToAD045H19a8J0g6GJ7V77S41jYoY5l3oVJYbWYE8j3x3zXvVv8AbPs995jHcVfdll4O04yR0PStqMnLVu/yPOx1KNO0YxSVrrVu+u5wY0mLVYNY8IXCBbbVLdriz+UhYrhQC23PQbsHH1FfM00UkE0kUqlZI2KsD2I4Ir6tuBdQ634eupixcXwhDFlPytFjHHqBn8jXzn8QbdLX4h+IIYxhBfykD0yxP9a3ovRx7HDjknOM11WvqtDml5dQfWux8Uafe678TNW0+1KPObuSKFZp1jUKmQqhnIAAAAAz6AVx6f6xfqK3/Hn/ACP2v/8AX/L/AOhGtjhNyT4P+Mrdo1vLK0s/MO2P7RfwpvPoPm5Nc94h8Ja34TvFt9b0+S1dwShJDK4HXDDINe7/ABp8Pal4i0HwzFpscUjxBy/mXEcWAUTn52Gfwqp401PQ/EV54F8H/brfUbuO8g+3SQOJFAChWUsOCWP8uaAPI7P4d+IbvSI9Wkt7ax0+XHlXF/dR26yZ6bd5BOaq6r4M17RdLGp31h5dg0ixJcpKkkcjMCRtZSQwwDyOO3WvRv2h5Z5PGGj6ZHnyI7ENFEvTczsOB9FUfhXNjT/G9r8P7zw3ceFtSawa5W8SeS3cCAqPmxxjB/x9aAPPVVnYKqksTgADJJrqf+Fd+KI9BvNbutKms7G1QO73Q8pmBIHyqeT19Ky18Oa8LMXy6LqX2XZ5ouBaybNmM7t2MYxzmvZNBuJ7n9mTXpJ5pJX82QbpHLHG9O5oA8c0fw9f66Zms0iWC3Cme4uJkhii3HA3OxAGT0HU1N4i8Ia34VkgTVrPyluF3QSo6yRyj1VlJB6j86XRL2+mtLnw5HqNpZWGpSI1w93xGDHkqS2CV/DrXpXxfN9B4G8KabDbC40a1hjEerJIrJcP5QACgcqMZPPX8KAPPtedpvB/haSQlmWO5iDE5IRZchfoNxx9a5euk1n/AJErwx/29/8AowVzdAHpnhC3mvPCenWluA09xqU0UYP95lhA/Cvp/QtHttB0e2020XEcK4LHq7fxMfcnJrwH4KwpPcaArjIS/vZAPcQx4/nX0hSQxa4fUrTU38UqR4qtbZTMjwWRk2vsxhhtz82fTp9K6+/uvsem3V1jPkRPJj12gn+lfNejeFbTxT8K/E3jXVHll15Z5ZoroysCmwK2MZxzkj24xjFMRDrFjLffDmx+zqXkghhl2qMkgLg/zz+FZep39hq+m6HY6RH/AKejoNqR4MeBzk9+ec+2a6sajq0UcOdNjTeyqiKD3A4/2e/PbGMU2JtVheSWPSbZZHUZ2KqnOeeQcn6frXrTpqT07JPTseDCq1vbRtrVde5vHqe9cH40uBPcX0SnIt7LYfqWDH+Yro7vWZtNtJZb2GNZmOLeJW++eevPQYBJ98VwV27y2OpSSNukeBmdj3JZSarF1k48iFgqDU+dnD0UUV4575p6LpN5r2sWmlWMe+6uZBHGO3PUn2A5J9BX1xoeiWvhfRLPQbA4jtlBlkxzLIRlnP1P+HavP/gh4MTR9JbxRqKhby+QpZK/WOHu/wBW/kPevSgqCdsyE8gklvavDzfFuPLSh1euv4HTQp3vJjvEq+JZZtLg0CaK3jeRvtc8kSyCNQuV+UkZy3HFb8Ifyo1mKNKFG4qMAnuQPSuQ8bXmpR6n4esNO1ObT1vZ5UmlhjRmIWMsPvAjqKl8NaXHo15eX17rV5f3VyiK895KuEVScKqqAFHJrvliaUKqpzlq0tOhlySceZIo+G9Y8UapaanrRFvewNNPFZ6YqrCVEchQZlOeSAeoxTba1uPEulavofia0jghupXjWFblJnhBCspLL/EpPGewWtfS9Hi8LWJkm1cx6fbvcTneVWMiRy4Lk/3c4GCM1zPhK5XV7jW9eQMltqd+72pYbS8SIsav+O01zY+rOjS9rfVPS/ra3o0XSipS5fI+avEmgXvhfxBeaPfLia3fbuA4deqsPYjBrHr6Y+Mfg0eJvDv9uWSB9T0tD5gTlpoOp/FeSP8AgVfNFelRqxqwU47MxlFxdmHevYvgJdI954h0Y4Ml3ZiWJCfvNGTx/wCPj8q8drb8I+Ip/Cviiw1mHLG2ky6A/fQ8Mv4gmraurBFuLTR7Vqt2x8PwxyafOCVKiRkUgHeOWOPl5Bx65rS0K6kj1OAvYyMgd95ONoG8Enpn0x61L4u8y50aHU9IMM+i3kfmxyqcGMMVJGM88joRxyKp6adQEzeT9lJEc3XPIyPfjJ/KvLacKlmfX05xrYa6tZ36mvqPi3Spfirpd3YXKXsUGn3EFz9n+YxEup5Hrx0q2uufD3Qtc1LxG2rQjUbsDzY2JMoIXGFTG4ZwOOlcRbi5NzdMyWqOWYMASVC+UOhzyMY/PNXda+3mew86O0xmL96nLDhsDGfu53c8ZxWyxT1bR58soXuxUte4mmand3ja5qk2k3ITULr7VDFsVnSM4VRtPViFyR2zmqumXEi2++OylZTllVADgebnbz37Y9s1p2Z1EWFw0a2bDyYsqzkD2BbPAHHPfNSeFLfy4rjWdWaKLS7IPLcyN/fVy2wc888/kO9ZPmqTVup3rkwtCV7Wjb56HIfH++UX3h/RxhXtbRppVBztaQgY/wDHD+deM1ueLvEU/irxRf6zNlTcyZjQn7kY4VfwAFYdeolZWPkW7u5b0+cW1/bzHpHIrH8DX1f4Z8S6u2gWsdloD3sUK+WJ0uFUNj2I44xXyMK94+DHjuO3X+y7+XbGQFLE/dI4Vvpjg/QGoejuceIjJTjNSstn89t/M9Z/4SLxF/0KU3/gUn+FJ/wkfiLv4Sm/8C0/wrqgQeRg/SsTxRLNHobtCZlcyxr+5fa5BcAgHtQ00txzhOMXLnenp/kUP+Ei8RH/AJlKU/8Ab0n+FRNq+ttJvbwUzP8A3jPGT+eKxdC1a+m8TWokm1Jy6J5kTJ8gQhsMR6ZKnPvXpXNEfeW5lRTrR5uZ/h/kcp/wkPiIf8ylL/4FJ/hS/wDCR+Iu3hKb/wAC0/wrO8Zanf2uoBY5WtoI4CUdCCZGYhTnJG3A4z15OK0PBWoT3unT+bMZBFLsRSB8gxnG7cdw57nNCetrhGcnV9nzP8P8gPiLxFjnwjN/4Fp/hUNz4p121tZZpvC8kUUaFmdrpcKB36V2FeUfFzxzbaXpT6bbSK8pP73B6sOQn58n6Y70SuluVWjOEdJu/Raav7j568XXAufEl24OdpCk+4HP61hd6fLK00jSOSWYkkn1NRVSVlY6qcOSEY9lY+kPDt+t54D8E6qJMLal9NuHOfkzlRn/AL5X8xXoOoRI2l2qG5jTMo2sxOAdjdfQ/wCFeEfB7XbaZb/wVqkvl2urfNaSZ/1VwOmPc4GPdQO9eu2mqefZLpOrCSPVbKUJOqAZZdjASqCPmUj9TXPNcsnfqerRk6lOKW8fyet/vZz3xAiEWg2lwJleCGRWkcA7Y1K4Gc9CT296420tJ/8AhELHVopI57WKWUvEV8wR/vWwxUgjB7/hnrXt2kLau4ULKQUjJDqGHbA6dOnNZtt9kVn2pOvQ7eAv32AGQOnU5/CsnTT1vv8AodtPFzjaFrqPdb37ni2oalP4t1dYoNk11ctHG3kriOGNcDJ9AAK+gLaJVtLwC5RgFfJUk/wnoO4/wqrrMdpELf8AdyDMchJjRVJO5eGGPXHP+NEl7pum6XfXV3NKsKB1JbGXYgjHThjkgCqjFQbRhXqzxCTtbokl2ehg28MVx4s0WzSZZEgLX0rpnairGFUHPufw5FfNPirUxrPizV9SQ5S5vJZUP+yWOP0xXtvizW38IeDL6+uf3Wv+IE8i3gJ+e2twMZPvg/8AfRHoa+ex0zW9GLUbvqceNqKU1GLvyq3z3YJ/rF+orqvFVkuofEvWrZ7y2tA9/Nma5YrGnzE8kAn9K5QHDA+hzXca7o8HiPXLvWrDXNIS2v5DcCK6vFhliLcsjK3cHIyMg4zWpxnd/GHW/D3irw3pK6T4i0+abTAxeEl1aQFVHyfLgn5ehx1rxnStRn0jV7PUrYgT2k6TR56ZUgjPtxWx/wAIXN/0HvDv/gzjo/4Qub/oPeHf/BnHQB6F8QNQ8PfFCLTdZ03XLHTdSghMNzZ6lIYSFzkbXxhsEn6g9ulV/EfiHR1+CVr4WtfEEd/qNlcx+ds3hXUl2whYDcq5A/D6Vwv/AAhk3/Qf8O/+DOOj/hDJv+g94d/8GcdAFBPEWuNaLp/9t362Zj8ryTduIgnTbtzjbjtivXtHvvDtj8GdS8ITeKtJ/tK6Z3Uq8hjXLKQC2z/Z9O9eYf8ACFzf9B7w7/4M46P+ELm/6D3h3/wZx0AXbDw1oWoaHcwLr1jb6/DfbM3Nz5dq9tt+8jFfmO73HHaus8d+MNFi+GWkeCdKvk1Oe3Ef2m6iUiJdmThSQCck/kK4b/hC5v8AoPeHf/BnHS/8IXL/ANB7w7/4NI6AGaz/AMiV4Y/7e/8A0YK5uun8STWkGlaPo1veQ3kljHKZ5oCTFvkfdtUkDdgAZPTJOM4zXMUAew/CrUU0mDQLyRgsS6rcRyMegV44kz+BYGvpyvkjw0obwPbKwyDe3AP/AHxFXs3h3xlqms+H4dOs5EOvWrpuWXH+lQr1IyRyeA3ccnvST1HbQ9KvbZbuyuLZjhZomjJ9AQR/WvmzT9cuvB/w/wDEPw+1DSb863czvHarHCWWRZAqkg+nBIxnORXr99rXjGyinuJtKtzFA2N0Kl96kL82zdk8k8ZHv0preI/GERtvM0CBZLiXZEoLNkEKfmOfkHJOT0xjHemI8yHiSLHOnagCeoEan+tU7rxLfMpWy0ySM/35/mx/wEf4141uPqfzoyfU/nXc8fUasebHLKadz0KeK/up2nuEnllbq7D9PYe1UtRzZ6Vdmf8AdtJH5caN95iSOg9AAea4rJ9T+dBPvXO6qfQ640WrK+noNruPhh4Jk8beLIreVG/s21xNeOP7ueEz6sePpk9q4ep4Ly6tgwt7maINyRG5XP5Vibn3AbSQOqrAFhjG2NFwAqgYAHpVddOmEpKwgLwRgj0+tfFn9q6j/wA/91/3+b/Gj+1dR/6CF1/3+b/GvMqZVSqS5pt3vfp/kbRrSirI+wj4O01NWXV4tNUalu3GcyEnJGGIBbAyOOlaq2EhRleEEMu3Bxj+fSvij+1dR/5/7r/v83+NH9q6j/0ELr/v83+NOWVU5S5pSb0t02+4FWklZH1q/wAOdBuLjzrjRIZMNuCM7GPr/c3bf0rebTJEKiG3RIwu0KoAAHGBiviz+1dR/wCghdf9/m/xpf7W1H/oIXX/AH+b/GpnlVOcFCcm7d2NV5J3SR9rorwMf3ZLZJZcdQe1fMHxd8DHwd4oae0ixpN+TLbYHEbfxR/hnI9iPSuH/tXUf+ghd/8Af5v8ajmvbq5UJPdTSqDkCSQsAfxrqwuG+rpxUroznPn1K1FFFdRB6F8P/iIfDSyaNq8JvfD10f30B5aEn+NP6j8Rg17HpujW+rWx1Lw1r5vbFkfCow8yMnkKw68ehwT3r5b4q5p2qX+kXS3OnXk9pOOkkEhQ/pWc6cZ7nTQxVSj8D0fQ93j0zUbe7uluWvFk3MxcwFd48sY46DsMDjjFXNU0nUpZ7BY5ru6QGMlFiJIJDfNuHuDx0Ga8sHxf8YPapBd30N6iNuUzwLuB+q4J696U/F/xglo1vaX0NkjHLfZ4F3E/VskfhXN9U1tfQ9N5zJ2fLqvuPZE0qPw/ph1DxJrb6ZaeWnyMyiRyOoC85PQY5xXkHxA+IzeJwmj6RCbDw/btmOHo07f33/nj8Tk1xWparf6vdm51G8uLuY9ZJ5C5/WqXfpXTTpRprQ8yviqld3n9wlFFFaHMFWLS7msrhJ4JDHIhyrCq9FAmk1Zns3hD42XGlwJa3wDRKMbXyV/4CRyv05Fd5P8AF7wxqtkbe8j/AHbEEiO5UEEHIweCOa+Xs+tLkVHL2Zz/AFZ2tGTS7aNfifTdr8QfBVt5HlQyq0Mvmo/2lS27GOTuyRgAYPGAK2v+FyeHP9v/AL+R/wDxVfJO6jJ9TQotbMSoVIq0Z2+SPqTUfiV4Q1KVZbmKR2VdgxPGOM5/vU20+K/hTSI5RZxMvmPvYNOnJxj1NfLpJNGfejle9wWHnfm5tfRHvfij47GaGSDSwI9wIzESWP8AwMgY/AZrxTVNVutXuzcXL5P8Kjoo9qoDmjvimlY1p0FGXM22+7/TsNoooqjUersjh0YqynIIOCDXtvhn4i6X4qsrbTfFd0dP1q2Gy01leA49JP654PseviHej6UpRUlZlwqSpyUouzR9d2eoapoe19R0X7ZbEApe6WN6sP7xTOR26cVnweKdKVm8yARSH+9byA53HnGPTt68186aH418SeGvl0jWbq2jznyg+6P/AL4bI/St6X4ueKLiRpbg2c0zY3OYMFsDHRSB09qwlRl9l/ed1PF0m26sd+z/AEPe7rXX1mSGPRvD91e7EZQ8sRijViQQd7YyOORj0rmPEfiHSPBzi88R3kOp65H81ro9o37qBv7z5zz7tz6CvIdW+KnjPWY/Jn1yaGAjHl2oEIx6ZXBP4muNZizFmJLE5JJ5JqlSV7y1MpYp8vLTXKvW7/r5Gr4j8R6j4p1qbVNTl3zycADhY1HRVHYCseiitjjCiiigAooooAKKKKACiiigAooooAKKKKAPR/BjLf8Ahr+zrYq97b3ckpg3AO8bqgDKD97BQggcjIroU0bWI5EljsruOSNgyOgKsh9QRyDXi9FKxSkfUmi+O/FdhGsOqaJLqKKMCVB5cv48bW/SukHxEh2Zbw7rgf8AuiBCPz318b0UaiCiiimIKKKKACiiigAopcH0NGD6GgdmJRS4PoaMH0NAWYlFLg+hpKBWCiiigAooooAKKKKACiiigAooooAKKKKACiiigAoorX0Pwzrfia5MGjaZcXjr94xr8qf7zHgfiaAMiivVbX4DeJXTff6hpOnn+5LcFmH/AHyCP1p118BfEKpusNU0i+Yjcscc5VmHtkY/WlzK9rlcsrXseUUVt694T13wxOsWs6ZPa7jhXdco/wBGHB/OsSmSFFFFABRRRQAUUUUAFFeofDj4VSeNNB1TUrmVrdBGYdPYnAknHOT6qMY/E+lecXlpcWF7NZ3UTQ3EDmOWNhyrA4INFwK1FFFABRRRQAUUUuD6GgLCUUu1v7p/Kja3ofyoHZiUUu0+h/KjafQ/lQFmJRS7T6H8qNp9D+VAWYlFFFAgooooAKKKKACiiigAorpf+E+8Uf8AQWf/AL9J/wDE0+P4geI1dWlvkuIwfmhnt43Rx3DAryDQBy9Fbni6xt9N8XatZ2ieXbxXLiNM52LnIH4ZxWHQAvvXQaPHGlj5/lq0jSFdzAHaAB0z9a58V0ml8aUhP/PR/wCS1lV+E7MGk6jfZFvzD/dT/v2v+FX7fSrqZd0gigX/AG41Lfl2q7pOniGNbmZf3zDKg/wD/Grd/btd2MsCEBnwMn6g1wSqK9kfV4fL37P2lS7dtFe33lEaIv8Az88+0Cf4VBPpFzGCYmhmx/D5aq3+FTXGmP8AaF8logDGUBYgE/K3YDg89se4q5Y20lpE0cjCTkESfxNwOv06D2xQ5NK9zVYWFSXI4OPnc5wsysVZFVlOCpjAI/SqmoxJNp8ztGgkjAZWVQD1AIOOvWus1HT1vItyACdR8revsfauWu/+QZdcEHy+Qe3zCtaU1Jpo8rHYWVC8Zu6advu/NHLUUUV3nzAtaOmaRe6xd/Z7GFpGHLHso9Se1R6Zp0+qahBZwD95K2AT0UdyfYDmvqz4feArLw/pUMjwBpmAZd685/vN/tH9BWsYK3NLb8zGrUkmoQ+J/cl3Z5Fo3wN1W/hWSeSRQwz8qBV/NuT+VbS/s+S7fmuJfp5q/wDxNeqza1r0+u31hpsNo62xH+sBBwffNW9G8QTzXV3ZarAtvdWyeYxU5Ur3P8vzrZxajdRX5s441U5WlN7tXskrr5HkY/Z9bGDNJ/3/AF/+JoP7PjYwJ5P+/wAv/wATXp8Ws+JNYWS80u1tks1JEYm+9Jj8f8K2bHUb3UtBa5S18m8KsFjlBClh069jRK8N4x/y9dS4SU3pKXdefpoeKH9nyXBAuZOf+myf/E1QvvgJfwQlreWcsPZJP0BBr2nRdf1CeTVE1GGMvYqMpAhJJ5yByc9KpLq/imezbVYYLaO1ALiBx8xQdT6/yp8ru04x/wCHM/arlUlKWt+ie299D5a8QeFdT8PyH7XAfLDbRKoO3Poc8g/WsHJPHavsy80qw8b+HVuJLdEmljK/MMjI4Kt6rXyx408MS+Gdbe2KN5LEmPd1GOqn3H8sVjOmrNx6brsdVGs21GWt9U+//BOYoorV8N6NP4i8R6fpFvxJdzLHux90d2/AZP4VidJ2Xw7+HX/CSpJresM9toNqcOyD57hh/Ant6n8B7e52F6LCCKw0nTFsrCLcFggAAOADlj1J/mfWmahbLY6TBpWlRIun2aNbxRj7xwMMR6sfm/n1NSR2GpWckTuscW4sE39SdoOOvXj9K8jE4ipOfLC9l2PWw2HpxhzVLcz7mXHI73MziCQMWwQwAbOzGT796nvpSxtB9kZGyhDEADoe+OD7e1Tw6Rq775vsoCnoQMjbswMc5PHFR3qXxe1jZY8kxgBQd2ecDGemc+9cHLNRd09fI9HnpuSs1p5lhL5rnTZrPUtPbUbJ41DwTKHznI4z37+1eKfEf4bxaJbL4i0AvNoczYdH5e0c/wALeq54B7dD2J9oSDULeGZGWFGCR7kkBH0yc/SmaSUlWay1BI5bG8VoLmFh13MV/mTzXdhsVOnJQns/wOHE4WFSMpwtddup8mUVu+L/AA7L4W8V6ho0mSLaUiNyPvoeVP4gisKvYPGCiiigAre8KeGbvxZ4ls9GtAd0zZkkI4ijH3mP0H64FYVfTnwo8GP4S8JNqd1FjVtUjDNu4MMPVV+p+8fw9KyxFaNGk6ktkVCLlJJHdWFrZ6PZWemadAUtLJPKiGOuByc+p6575NeO/HPwak0S+MdNi4JEOoIq4w3RZPx4B/4D717LAZMrhVP4n0qIxRXqXVlfQpJa3SeVPGxyCpXFfO4TMZRrKU9pvXTbTQ66lFONl0Piqium8d+ErjwZ4qutLl3PCD5ltMR/rYj90/XsfcGuZr6c4gooooA09EtY73VoLeUZRiSR64GcfpX1HH8NvCOlaItxqMWEhiDSzbyoHvgdBXzF4X/5GG1+rf8AoJr698Zc+AtQ/wCvcf0rKaTk762R6WHclTpqLtzSabW9tP8AM49dJ+FruEW5h3H+9M4/nWpqHgbwJpdvHPfKsEUhwjPMQGOM8fhXPy6/pD+DbfSv7Gna+lt1ijlkgVVaTAG4OevPOa6vUNJ+y/DBrXUEjmuLSyJBYBtjhex9R0zWceVp6LY7K3tIOKc5K8rWb1a7oqt4E8Cppf8AabIv2IpvE5nO0j1zWdpnh/4cavdi0tCHnbO1CzqW+mcZp2rRJL8H9Ld544/KSGQLIcCUjPyfU/0qrea1H4g17w5F/Zz6R5M6yCa4XZuAx8iccg/4VLcU1oun4lU6daUZPnejavfay003d/I6b/hVvhXP/Hi2P+upqOX4V+FnhdFs3XcCA3mE4/A8VX8ceJT/AGXqukLpuoq2zZ9qEP7odDnd6Vf8J+Jvt0Flph0zUIytuB9olhxG21RyG9+1afu+blsclsYqXtuZ29fmfKfi3TYtK8Q3NpD91GI46ZBIOPbisGur+Iv/ACOd8f8Apo//AKG1cpWkHeKOPFpKtJJW1EoorudQ13UPC+maHZ6JMLJJ9PS6nkijXzJpHZslmIyQAAAOgxVnMcNRXTf8LB8W/wDQduv0/wAKlt/HHjW7l8q21a/mkP8ABGu4/kBQBylFdZL448aQSvFNq1/HIgyyuuCv1BHFQ/8ACwfFv/QduvzH+FAGb4il0+fxHqU2kx+Xpz3UjWybcYjLHbx247Vl11vjvwZd+DteubaZQtq07izLuC8kQPytgdsEDPqD6VyVAHR+Pf8Ake9Z/wCvlv6VzldH49/5HvWf+vlv6VzlAC11OgRC4t7WJhlWnYsPYAE/yrlq67wsQotSe8so/wDHRWNfSB6OWRUsQovZ2/NHY1VudRtbSeKCaTbJKcKoBOecfhT7szizmNqAZ9v7sHpmuMvbK4tdd09ryfzbiZ1dz2HzYxXn0aUZvVn2OPxlTDJKnG+2vRXdvvOou7Ozjle8uJWQBgxZmGB7dP8A69Lba7pt3MIobkGQn5Qylc/TNUfF1vNNpqvHykT7pFzjI6Z/z61jX0tjqslhbaVbCOcNgttCYHpnv65rWFNVIXk/+AceJxs8PWcIJLZ2d7u76eh3Fcr4hiEP27AwJIlkH1LAH9R+tdSOnJz71zficjE/+zbDP4vWeH+M6s2ipYVt9P8AI4SiiivVPz89W+CWhpqXiFriVAyqwTB9B8zfyA/GvqYcCvnj9nwoLucHqXbH/fI/wNfQ+R61tU+GK8v1ZzUdZzl52/BHn63t9ZeMNYewsDeO5AZQ2No45qUadqdxDrWr6hALeaa0aOOEHJAxz+g/nXQ2OjfY9dvtSNyHF2BiPbjbj3zzWsdrpg45GDWs66uuVdFr6HNTwjafO3u2lpbXr+JzOkPev4Ks/wCyDD9oChf3n3eGO7NXPCup3eqWFxJelDLHO0fyDA4Aqg/hC4t5ZBpmsTWltKcmIAnH0Oa2dE0iDRLNraKV5S7l2dzySf8A9VKrKm4yad23fbVFUY1lOKkrJKz10fayMXwx/wAjN4h/67D+bVFeX194nuptO0thFp6HZcXR/j9QP88/StO10GS1udXmW7G6/B2jZ/qyc+/PWs218JapYweTba+8Mec7UjwM/nVKUHJzur6WvfsZuFVQULO13ezV99Fv16nTafYw6ZYw2kGfLjXAz1Pua8e+POiJLpX9oIg8xVEmfdSAf/HWH5V69pVrc2VkILq8N1MCSZGGCR2FcD8anQeDpQx5McmPyA/mRWVK7qNb3v8AkdNWypRa0s18tVofKFeq/ASzWXx3c3jAZsrCWVc9mOF/kTXlVeqfAW6RPHV1YuR/punyxLnuRhv5A1zyvbQ7I2vqeyJcvpttJqETyXEsKzOkDOMOdp2g+gJ79eal8TTSzL4HuL0RrcNqCSShThA5t5CQD6ZrLvPsH9muCoWUPJj5WHzeg9+mR2rV8TpHP/whUTfcfUVVh3ANvJXl4ObalBdj08bBJxm772F8P3vi7VvFBn1G4s7XTbaPY9paguJHYEgszDIYZHAPao/Dd0niLxvr11bzyTaZYXSpA3WNpPLAfafZsn05rU8Q+HL3UNBj0bQ9Ri0q1c7bmUKWlaPuqnPBPcnmmsug/D7wiRKhjsl2QbLdSzuW+UBQOSTn69TXbyNpKevU4udJtw06FDXJoL+fS9d026kNpfK1m0sR6kEmM4+odef7wrJs4soALiRTnG5G77+v5c/rWvpy6N4h8FXug6FZXVjDbRAW8V1C0W18l0I3ckbhya5/TZ7W4sYZpYwu9QSrKSV+fkfgePrxXnY+K54zWzPTy+b5JQe6t0OA/aCtI18T6Rfx4JurAB2BzuKsefyIrx+vYP2gblD4m0iwTra2ALjGMFmPH5AV4/XsQvyq548rXdgooq/pOmXWtara6ZYxGW6uZBHGg7k+vsOpPoKZJ33we8EL4n8RHUr+LOk6YRJLkcSydVT3Hc+wA719NSWk92hcThd5JAK5wPSue0PQrLwn4ds9As2VkhUtcSdDJKcbmP4/kAB2rV17R49e8KPpz3ZtIpWjZpVOMBXDEdR1xjr3ryJ1KeMryoPWMV0drs3SlTip9WWf7NmiZcS7hnqB04oXSZslmnXcfRar6ZeaFo0ln4ds76I3Dq5gtvPMj7RlieSSB9a5yy0y31H4meINSvZ5En097a3syZiFjDRAnC5xkluhzSeWYeKTafkr7Aq031KnxP8ABQ8YeFpI7cLJrWmAyW5UcuMZaP8AEYI9wPevlMgqSCCCDgg19cQQ3Wk+N2ivtdudRvprFZQGtY4oxGshHOzq3zEdOhryD42eCk0jV08R6dHjTdSYmUKOIp+pH0bk/XNdmGrRVSWH6xtb0InF2Uu55JRRRXYZmz4X/wCRhtfq3/oJr7E8TWVxqHg+7tLWPzJ5YAqJkDJ47mvjzwvj/hILX6t/6Ca+t4tM8WGJCPENmBtGB9gH/wAVWTfvtW6f5no00lRhLmStJvW/l2RBeeG5tQ+HUOlTQqL6K2TYpI+WRR0z09vxqQWmsXvw8msbu1K6mbZoShdTvIGAc5xyMU6Ww8UwxvM/iSzVVUsxNjwAOp+9VC3vdXup4YIfGOmNLOu6JBaDLD2G6p0T2e1uhac5R0lFpO/XR/dsVtS8M6rL4K0OGG3Vr7TGSV7ZnGJMdVz0NRat/bvjFrCyOgTafFDOsstzO4+XH93/AD6V0P8AZfi3/oYrP/wA/wDsqo3b6/YyGO48U2MbhQxU2POCSAevsfyJpOPk7fI0p1nfSUW020/e0vv01+Z0PiDSn1jw/d6dHKsbzx7A7DIX8KsadZGx0q2tGYM0MSoWAxnAAz+lYaad4skQOniOyZWGQRYggj/vqlOmeLsZ/wCEis//AAAH/wAVWl9b2f8AXzOP2a5eT2ite/Xf7j5X+Iv/ACON9/11b/0M1yldV8QA6+LLpZGDuGIdgMBjuOTjtzXK06fwonG/x5eoldL4w+54d/7A0H/oT1zVdL4w+54d/wCwNB/6E9WcpzYBJAAyT0r6A+IKv8L/AIbaLpHh9msru/b/AEy8hO2WQqoLfMORlmHToBivn8EqwI6g5FfQfxHLfE74baLrXh5Te3Fm+bq1hG6WLcoDfKOeGA/A56UAef6H8QZJvCniLRPEd1Pefa7IrZ3Ew82RJQwIQuedhIB5OAR7153Xv/hldSsfg/rl5rOj2UOrWUTNYm60+JZhEAoDFSuSAc4LDn3rwaeV7ieSaQgySMXYgAAk8ngcCgDUuNE8SXcxmudL1aaVuryW8jMfxIot/CviG4njgi0PUDJIwVQbZxz9SMD61B/wkeu/9BnUf/Ap/wDGkl13WJ4mil1a+ljYYZXuXII9wTQBf8bTRXPjXWJYJUliN04V0OVbBxkHuOOtc9RRQAV0uku0emwyJ99JmZfqNtc1XSaV/wAgmP8A66v/ACWsqvwnbgW1UbXb9UdxBMlxAk0ZyjjI9vauZ8Rf8jFpX1X/ANDp9jfSWDtkb4icumf1HvW0sdhqXlXXliRl+4zZBHOf51wRXsp83Q+vc1j6Hs4tKV038mY3jHzPKs/vGDzD5gHrxj9M1U8RTaZPZ2q6f5RnDgr5S4Krjocd84rrpY45UaOZFdGGGVhkGqS6XpenO04t0iZOdxy236dadOtFJJ7onF5fUnOcotcsrXvurdi3EzJaRtcNhljBkJ7HHNclqk5ube/nIwHT5R6KGUD9Kv6hqZvR5cYKwd89X+vt7Vl3f/INu/8ArmP/AEIVdKHLK73OTMcVGpH2cNYpPXu7HLUUUV6B8gegfC/VobXW2sbrcYbja2FbBJXqAfUqT+VfSsXg/Rpokkja5KOoZWE7cg18YwzyWtwk8DFHRgVYdQRX0d8MvidFe2C2d8GXysBtqk7Ce49VPp1FdUJzlDli9V+KOGtTpwqc80mn17P/ACZ6IPBOk4/5ev8AwIasW907w7YXE0Eseol4R/DIxDHAOBz7iu6RhIqup4IyK4nVtKur3XrkQpOplOBKsi7BlVGSCc8ANwBzxTpVJSlacmTiaUIQThFNl2x8MaJqFqlxD9rCtkYaZlIIOCCKnbwZo6IWY3IAGSTcNwKu+HYZbfTfJlEvmrIwbzHDZOeSCOx68881f1C3ju9PuLaRSyyIQQDjPHrWcqtRTsm7GkKFN01JxV7djhoYPC80kS+ZcqshwXa5OFY9Aec8/kOM1v8A/CFaSR1uv/Ahq5+HTtSF/ayEEKGjGPM5A44647V6GPu1rXqSi1yyZjhacaifPFfcc3/whWk/9PX/AIENXi3xkvbHS7dtI05nPmsEffIWJ2nLHntnA/A16h45+IFp4d0+5WNn82P5XYKfkJ6AepPr0FfKuuazca5qkl5c8bjhEzkKvYUuecYNzbu9l+papUqlVKCVovV+fb9TKrW8Na3N4c8Safq9uMyWkyybc/eH8S/iMj8ayaK5DvPrfVLu1vdIh1HT4zPY30ZnilUAgbhyG44wT+Y9qz7bTrP+1Y9SfSUlvE3YmPLDCgdfpwPrivIvhv8AEdfDMcmia0sk+g3RIITl7Zj1dfUeo/EdwfdYtOul8q6sZ4Z7WVS8UhQgkYHUHHJxXkYnDThU9pDZ9j18NiITp+znuu/U5RPDujSTyf8AEih4ONrLgg7ep/n9anm0LR7eWzkh0GGCYNGySbehGT1/vf4VdjEwnk3mJTx0BIxs4x36etT3wvALXzDDsPl/MoOR1wPpnPvXCqlTlerO90qXMvdRHJBHfafJBe6a11AVjbYwB5B4IHr1+mafoEFrZWrTSRpZ6XZI08r9EjVWLY/+tWhp1ldyWrzvJBFarGpdyhbgc9Ac8CvE/iT8SYtZtT4d0ESQ6PE+ZpHGHu3znJHZc8gfywBXbhcPOpyuXwr8TixOIhT5oxS5n+BxfjLxFJ4q8V6hrEgKrcS/ulJ+5GOFH5AVg0UV7B4wtfQnwQ8G/wBl6WfFt/CTc3SlLFD1SM8M/wBW6D2HvXjfg/TNP1TxJaQaxd/ZtNU+ZcvtZiUHVQFBOT09s5r6eXx14MGyOHWVjiiRUSNbOYBFHQD5awxTq+zapK8n+HmXDlv72xsTspuCRGQcHdx16fnXOfEPWdMm8NN4fcyPfXEtufs4t3YMvnKTlgNvQHvVqTxz4PkkD/27gj/p0m/+J9qU+PvCJiaP+3cBs/8ALrN3/wCA14eFwmKoVJz5b380jonUpzSV9i5o2i6Nol352m6Na20hyGeGFVJGOmeuKq6h4j8HafqNxdalDNFfSPHI8clnK7O8f3GUBSpI7EHsPSmx+O/CEZB/t3JHT/RJv/iab/wnXhEOWGvnnt9lm9Mf3a2w1PGUlaUea76tffcmbpSejsUdHmv9d8UXnie8sJ7G2khjs9PguF2yGIMWZ2H8JYngeldDqWkWniPQrzRNQjb7Ndxbd2B+7f8AhYe4OD+FZ0njzwhKFH9u/dI/5dJu3/AaZ/wn3hRAVj1kOpGDm2mH/stZyoYtYl4hx+633dxqVP2fJc+WNf0O88N67eaRfptuLaQo3HDDsw9iMEfWsuvcfjJN4Z8T6RBrGm6ij6vZDy5l8iRfOiLY6lQMqxOPYn2rw2voIu6T2OVmz4YYDxBanOOW/wDQTX25bSI9rCyOpUoCCDwRivhCKV4ZFljJVlOQQeRXTwfEHxDDEkKXbhUGAFkdR+QYCpaaldK51wlTlSUJyas29r7pf5H2DqyNLpF5FGNzvC6qo6klTgV53pekat/aVreMl2sCTqH82BPNyWyDjPK4C5PbccDg14J/wsjxH/z/AE3/AH+k/wDiqP8AhZHiL/n9l/7/AEn/AMVUSi5O7X4nRRqUqUHGM9/L/gn2YOnUV5p4q8P31zrNzLb2r3AkZX8xwDj5cbVJBwPYepr5+/4WT4j/AOf6b/v9J/8AFUf8LI8Rn/l9l/7/AEn/AMVRNSkrNfiTh50qE+eM/wAP+CfWvhyGS38PWcMsYhkWIBo9oXafoMYrWZlAJyK+M/8AhZHiP/n9l/7/AEn/AMVQ3xF8RSKym8kKsMEeY5BH0LVSckrW/EylChKTk57+X/BGfEJkk8X3rowZTIxBHQ5YmuVqa5uJbuZppWLO5ySai7VUVyxSMcRUVSq5LZsbXZ69peoarpvh6906yuby2GmJbtJbxNIFkRnDI2OhGQcHsQa4yrdrqV/YbvsV7c22/wC95MrJu+uDVGJY/wCEb13/AKAupf8AgK/+FWLbRvE1nL5trpurwSf34oJVP5gVX/4SPXf+gzqP/gU/+NH/AAkeu/8AQZ1H/wACn/xoAtPpPiiSWSZ9O1d5JVKyO0EpLg9QTjkVV/4RvXf+gLqX/gK/+FH/AAkeu/8AQZ1H/wACn/xo/wCEj13/AKDOo/8AgU/+NAH/2Q==;" vertex="1" parent="7">
                    <mxGeometry x="480" y="120" width="250" height="166.15" as="geometry"/>
                </mxCell>
            </root>
        </mxGraphModel>
    </diagram>
</mxfile>